<svg width="221" height="208" viewBox="0 0 221 208" fill="none" xmlns="http://www.w3.org/2000/svg">
<path d="M209.827 86.3233C208.712 83.2 208.341 79.8333 207.305 76.6683C206.774 74.9934 205.558 73.5351 204.605 72.0102C203.942 70.9469 203.196 69.9429 202.471 68.924C201.838 68.0102 201.336 67.063 199.891 67.0505C199.276 67.0435 198.443 66.134 198.118 65.4497C197.338 63.8619 196.235 63.0543 194.489 62.9942C194.002 62.9891 193.512 62.7668 193.058 62.5501C191.238 61.7011 189.491 60.737 187.36 60.7062C186.331 60.6876 185.319 60.1113 184.294 59.8402C183.932 59.7285 183.509 59.7699 183.347 59.7623C183.012 57.1966 182.653 54.5548 182.35 51.9037C182.271 51.2586 182.58 50.5665 182.443 49.9482C181.874 47.49 181.231 45.0382 180.533 42.5956C179.913 40.4547 179.217 38.3379 178.466 36.2303C178.214 35.5396 177.753 34.9062 177.322 34.3136C176.556 33.3244 175.767 32.3677 174.939 31.423C173.946 30.2712 173.004 29.0192 171.841 28.0213C170.075 26.4938 168.134 25.1555 166.242 23.7346C166.029 23.5924 165.734 23.401 165.528 23.4407C163.73 23.8242 163.061 22.4527 162.203 21.3586C162.097 21.3417 162.017 21.2749 161.914 21.2404C160.384 21.0701 158.876 20.8849 157.361 20.735C156.793 20.663 156.238 20.6291 155.664 20.5924C154.609 20.5153 153.532 20.3444 152.486 20.4316C150.869 20.5907 149.195 20.759 147.65 21.2551C144.647 22.2788 142.374 24.2861 140.694 27.0022C139.209 29.4056 137.546 31.6724 136.126 34.1224C135.572 35.101 135.5 36.3549 135.195 37.4814C135.163 37.5667 135.078 37.6437 135.011 37.7234C134.094 37.343 133.212 36.8595 132.255 36.6173C131.077 36.2858 129.831 35.9255 128.627 35.9875C127.261 36.0419 126.164 35.8859 124.944 35.132C123.904 34.4971 122.471 34.5227 121.211 34.2505C120.752 34.1777 120.293 34.1049 119.848 33.9439C118.419 33.4823 117.004 32.9324 115.564 32.5413C113.411 31.9648 111.23 31.456 109.043 30.9824C108.498 30.878 107.903 31.0909 107.345 31.0746C106.587 31.0628 105.828 30.9424 105.067 30.9481C103.98 30.9564 102.893 31.0733 101.785 31.0964C99.3704 31.1471 96.8609 30.767 94.5496 31.3041C92.7309 31.7024 91.0018 31.5366 89.2279 31.6528C85.9765 31.8419 82.7379 32.1777 79.5115 32.5515C78.716 32.6603 77.9649 33.1738 77.2065 33.5054C75.1682 34.375 73.1977 35.6169 71.0705 36.0205C67.9721 36.6135 65.4334 38.4702 62.4131 39.2564C60.809 39.6707 59.472 41.1396 58.0135 42.1193C56.5783 43.0666 55.0363 43.8884 53.7079 44.961C52.0029 46.3535 50.5441 48.02 48.854 49.433C47.5376 50.5437 46.0727 51.45 44.6644 52.4558C44.4627 52.5864 44.2136 52.6734 44.0945 52.8534C42.7496 55.1706 40.3803 56.53 38.6741 58.5008C37.8763 59.4226 37.0284 60.3184 36.2623 61.1549C35.1989 60.1004 34.3037 59.1269 33.3155 58.2833C32.9486 57.972 32.3308 57.874 31.8188 57.7927C30.7419 57.6219 29.6632 57.5773 28.6067 57.3916C27.0003 57.1367 25.2264 58.7352 25.4177 60.6093C25.5517 61.932 26.1438 63.219 26.5947 64.4835C27.1059 65.9384 27.7696 67.3451 28.2427 68.812C28.3689 69.1574 28.218 69.7661 27.953 70.0675C26.8735 71.3966 25.5459 72.5778 24.5992 73.9821C23.8124 75.1768 23.4538 76.6383 22.8296 77.9492C22.4166 78.8417 21.8706 79.6589 21.3749 80.5021C21.1833 80.7971 20.8737 81.0372 20.7527 81.3433C20.3675 82.4029 20.1179 83.5202 19.6648 84.5509C19.1717 85.7199 18.5104 86.808 17.9169 87.9249C17.8909 87.975 17.8472 88.0223 17.8593 88.0604C18.246 91.2127 16.0358 93.7362 15.8575 96.7989C15.6372 100.469 15.1138 104.11 14.6435 107.759C14.5054 108.858 13.7595 110.023 14.0257 110.969C14.3799 112.272 14.5808 113.515 14.5327 114.845C14.5194 115.385 14.4151 115.929 14.4166 116.49C14.4154 117.068 14.4875 117.64 14.5597 118.212C14.5948 118.561 14.812 118.902 14.7468 119.199C14.2458 121.217 14.7456 123.086 15.3077 125.018C15.6276 126.081 15.5638 127.282 15.4935 128.41C15.4645 128.821 14.9754 129.394 14.5739 129.529C12.8303 130.139 11.0804 130.674 9.2942 131.096C8.03588 131.384 7.06283 131.7 7.02571 133.303C7.01867 134.26 6.50334 135.226 6.44055 136.192C6.31864 138.216 8.19924 140.051 10.2278 139.812C11.8308 139.633 13.1725 139.845 14.6514 140.677C15.649 141.232 17.1333 140.89 18.4006 141C19.7944 141.113 21.0934 141.138 21.517 143.031C21.7635 144.1 22.6792 145.059 23.3802 146.002C25.6282 148.943 27.8354 151.915 30.2498 154.72C31.3029 155.953 32.8114 156.825 34.0922 157.878C34.669 158.349 35.2429 158.838 35.7527 159.389C37.285 161.024 38.5218 162.811 40.8508 163.759C42.5843 164.467 43.8741 166.263 45.3861 167.569C45.7381 167.86 46.1774 168.056 46.5322 168.329C47.1592 168.826 47.9061 169.252 48.3137 169.877C48.998 170.926 49.6768 171.666 51.0688 171.562C51.4712 171.535 52.0378 171.842 52.3489 172.162C54.4729 174.289 56.8312 175.964 59.8545 176.643C60.9555 176.89 61.9753 177.648 62.9674 178.239C64.37 179.095 65.5764 180.389 67.4637 180.128C67.7044 180.094 68.022 180.487 68.2765 180.709C68.7529 181.128 69.1159 181.691 69.6529 181.957C71.9335 183.096 74.2661 184.135 76.5784 185.189C76.9146 185.351 77.2918 185.483 77.6458 185.648C79.1322 186.317 80.8708 186.195 82.1347 187.697C82.6538 188.304 84.2586 187.998 85.3643 188.101C86.7552 188.232 88.189 188.206 89.0989 189.543C89.2326 189.727 89.5216 189.845 89.7511 189.882C91.9939 190.346 94.3811 190.472 96.4741 191.31C97.9011 191.898 99.4969 191.193 100.88 192.515C101.552 193.182 103.434 192.613 104.938 192.599C105.654 192.766 106.638 193.067 107.629 193.206C109.191 193.4 110.77 193.488 112.34 193.628C112.643 193.658 112.993 193.732 113.28 193.633C115.508 192.938 117.933 194.425 120.12 193.073C120.26 192.987 120.704 193.383 121.005 193.539C121.863 193.946 122.645 194.612 123.615 193.628C123.875 193.361 124.569 193.544 125.063 193.514C126.643 193.367 128.244 193.313 129.79 193.035C132.918 192.482 136.028 191.819 139.134 191.173C141.308 190.704 143.467 190.215 145.619 189.653C146.429 189.456 147.193 189.089 147.927 188.682C149.867 187.634 151.765 186.507 153.69 185.439C154.205 185.159 154.72 184.879 155.268 184.731C156.743 184.332 158.239 184.027 159.711 183.646C160.013 183.568 160.29 183.304 160.541 183.091C161.56 182.259 162.387 181.269 163.937 181.081C164.712 180.987 165.632 179.976 165.996 179.166C166.712 177.508 168.384 177.123 169.586 176.157C171.064 174.945 172.69 174.046 173.858 172.388C175.006 170.744 176.934 169.658 178.179 168.085C179.849 166 181.332 163.722 182.677 161.405C183.764 159.571 185.106 157.958 186.282 156.247C187.653 154.223 188.335 151.638 188.956 149.206C189.386 147.521 190.192 146.094 191.065 144.696C192.231 142.821 192.893 140.702 192.894 138.642C192.901 136.998 193.847 135.828 193.997 134.316C194.128 133.144 194.883 132.034 195.338 130.877C195.431 130.639 195.584 130.356 195.527 130.148C195.155 128.842 195.84 127.486 195.673 126.375C195.266 123.69 197.396 122.473 198.324 120.614C199.174 118.905 200.692 117.555 201.695 115.907C202.556 114.471 203.054 112.814 203.815 111.326C204.235 110.507 204.991 109.85 205.375 109.025C207.044 105.349 208.887 101.719 209.079 97.5382C209.117 96.3874 209.469 95.196 209.88 94.0863C210.856 91.4754 210.774 89.0223 209.827 86.3233ZM143.82 34.6743C144.563 33.0749 145.343 31.4634 146.413 30.0787C147.033 29.2551 148.353 29.0307 149.138 28.3057C150.658 26.9381 155.083 27.2243 156.554 27.8735C157.451 28.2688 158.462 28.3932 159.422 28.6177C159.469 28.5528 159.515 28.4879 159.564 28.4053C160.563 29.0699 161.472 29.9552 162.569 30.3461C166.237 31.6331 168.563 34.4243 171.083 37.1377C173.351 39.6124 173.82 42.814 174.572 45.717C175.154 47.9785 176.211 50.4418 175.518 52.9889C175.44 53.2478 175.502 53.6553 175.671 53.8448C177.462 55.7918 176.777 57.9426 176.342 60.115C176.237 60.6588 176.483 61.2762 176.485 61.8368C176.473 63.281 176.839 64.9659 176.225 66.0977C175.544 67.3092 175.143 68.2398 175.671 69.5888C174.119 68.0773 172.72 66.5177 171.32 64.958C170.95 64.5558 170.723 63.8149 170.29 63.692C168.624 63.2468 168.171 61.7651 167.626 60.5218C167.267 59.7057 167.05 59.0205 166.131 58.7663C165.077 58.4544 164.532 57.5545 163.748 56.9059C162.343 55.7249 160.888 54.6265 159.725 53.1766C159.57 53.0076 159.229 52.9896 159.02 52.8298C157.512 51.723 155.99 50.5957 154.505 49.4565C153.136 48.3897 151.857 47.2107 150.454 46.2469C149.098 45.3268 147.599 44.6191 146.191 43.7992C144.538 42.8138 142.905 41.8136 141.254 40.8106C142.133 38.6906 142.893 36.642 143.82 34.6743ZM40.8756 73.2565C42.3752 75.2116 45.0285 76.2833 47.1649 77.761C47.7203 78.1384 48.5871 78.4928 48.6909 78.9792C49.247 81.6342 52.4469 81.9973 53.2066 84.3954C53.2577 84.53 53.5577 84.5776 53.7026 84.691C54.2265 85.1537 54.7327 85.6136 55.2361 86.0911C55.523 86.3355 55.7764 86.7914 56.0793 86.8214C57.5437 86.9453 58.3647 87.8167 58.9652 89.0507C59.1323 89.3664 59.4992 89.6777 59.8382 89.8219C60.5638 90.1539 61.5162 90.1965 62.0874 90.7029C63.7833 92.2192 65.3276 93.8922 66.9361 95.5031C67.2621 95.844 67.5881 96.185 67.9401 96.4758C70.0401 98.1827 72.1429 99.872 74.2634 101.564C74.9525 102.125 75.7291 102.592 76.4332 103.174C77.14 103.738 77.7538 104.432 78.4606 104.996C79.6968 105.987 81.0437 106.852 82.1953 107.92C83.5689 109.186 84.7036 110.704 86.08 111.953C87.7462 113.428 89.564 114.747 91.3176 116.128C92.317 116.901 93.7644 117.474 94.2191 118.486C95.4311 121.227 98.8488 121.245 100.176 123.715C100.257 123.89 100.68 123.849 100.875 123.989C101.377 124.357 101.839 124.756 102.031 124.913C98.8742 127.359 95.9832 129.611 92.6421 132.19C92.2744 131.77 91.7368 131.052 91.0941 130.426C90.6558 129.995 90.1226 129.477 89.5902 129.41C87.914 129.253 86.4955 128.612 85.2203 127.524C84.5989 126.992 83.8437 126.619 83.1786 126.134C82.8387 125.881 82.363 125.571 82.3251 125.239C82.1427 124.108 81.4685 123.567 80.4613 123.299C79.1244 122.942 77.8347 122.629 77.4714 120.926C77.3584 120.384 76.5198 119.51 76.1825 119.583C74.5515 119.939 74.0998 118.566 73.1774 117.877C71.4953 116.616 69.616 115.685 68.2966 113.849C67.1879 112.281 66.0339 110.544 63.963 109.908C63.6156 109.817 63.3445 109.358 63.0864 109.046C62.2469 108.063 61.5125 106.988 60.6088 106.068C59.3941 104.827 58.0075 103.757 56.8336 102.486C55.2568 100.79 53.7672 98.9993 52.2982 97.1936C50.8143 95.3675 49.3974 93.4617 47.9954 91.5762C46.831 90.0177 45.6871 88.4444 44.6045 86.8266C43.6826 85.4512 42.8424 84.0164 42.0023 82.5817C41.2633 81.3076 40.6062 79.9741 39.8877 78.6852C39.3093 77.6535 38.3556 76.7069 38.1323 75.605C37.694 73.3482 36.4014 71.5706 35.3925 69.6029C35.2402 69.3076 35.2488 68.9113 35.0867 68.1083C37.1251 70.2032 39.3046 71.1816 40.8756 73.2565ZM23.075 126.594C22.9579 126.648 22.7842 126.602 22.564 126.622C22.2807 124.643 21.6898 122.777 21.8283 120.992C22.1219 117.658 20.9686 114.547 20.7929 111.32C20.735 110.316 20.7681 109.309 20.8541 108.311C20.9047 107.65 21.2051 107.011 21.2733 106.353C21.4594 104.267 21.4838 102.174 21.7906 100.126C22.0004 98.8038 22.7045 97.5598 23.0378 96.257C23.6245 93.9279 24.0022 91.5475 24.6567 89.2473C25.0859 87.797 25.8272 86.4324 26.5453 85.1002C27.0923 84.0482 28.2784 83.188 28.4257 82.1449C28.7205 80.0587 30.0027 78.7076 31.087 77.2347C31.8473 78.6026 32.5425 79.924 33.3548 81.1917C33.8877 82.0535 34.6224 82.7846 35.1729 83.6492C36.8274 86.2254 37.5838 89.3279 39.8555 91.5501C40.122 91.8093 40.1701 92.305 40.2702 92.7005C40.6309 94.0773 41.2213 95.147 42.6631 95.7554C43.8986 96.2948 45.0541 97.1108 44.6657 98.8748C44.5688 99.2571 45.0294 99.8906 45.3907 100.237C46.4299 101.215 47.6792 102.01 48.6339 103.065C50.4726 105.165 52.0948 107.374 54.4503 109.067C56.6108 110.621 58.3211 112.845 60.4422 114.989C59.6216 115.256 58.97 115.713 58.6895 115.542C57.2014 114.656 55.7885 115.462 54.8506 116.126C52.5945 117.684 49.9555 117.663 47.5494 118.457C43.5753 119.778 39.2636 120.034 35.4621 121.98C35.2864 122.06 35.1052 122.176 34.9203 122.201C33.0943 122.418 31.6317 123.993 29.6452 123.624C29.5923 123.615 29.4965 123.763 29.4175 123.805C27.2974 124.733 25.1922 125.683 23.075 126.594ZM22.4678 134.072C22.4753 133.91 22.4978 133.769 22.5053 133.608C22.8864 133.487 23.273 133.332 23.6689 133.232C25.4225 132.787 27.2245 132.495 28.9002 131.857C31.194 130.973 33.3105 129.61 35.9307 129.863C37.0856 128.401 38.992 129.047 40.362 128.397C42.8093 127.231 45.1526 125.921 47.8875 125.451C49.7684 125.117 51.5799 124.193 53.4365 124.127C54.9995 124.085 56.2716 124.052 57.2926 122.75C57.473 122.525 57.933 122.364 58.2536 122.396C60.8209 122.641 63.226 122.083 65.5534 120.988C65.8462 120.853 66.3925 120.832 66.6145 121.029C67.3687 121.637 68.0764 122.31 68.6818 123.057C69.7172 124.287 70.7349 125.515 72.3868 125.94C72.6163 125.976 72.8318 126.101 73.0064 126.255C73.9584 126.985 74.9719 127.67 75.8337 128.511C76.82 129.481 77.6928 130.596 78.6094 131.663C78.8378 131.934 78.9324 132.365 79.1832 132.495C80.6315 133.177 82.1403 133.706 83.5569 134.473C85.1946 135.329 86.7458 136.388 88.5794 137.493C88.0488 137.644 87.835 137.736 87.6352 137.741C84.6441 137.772 81.6325 137.819 78.6116 137.809C76.5841 137.813 74.5464 137.652 72.5142 137.8C70.7755 137.922 69.141 137.843 67.4185 137.407C65.6458 136.945 63.7363 137.004 61.864 136.942C60.6383 136.91 59.168 137.508 58.2326 137.016C56.0988 135.864 53.9306 136.641 51.8102 136.431C49.3312 136.201 46.7831 136.519 44.3012 136.306C40.5288 136.015 36.7863 135.421 33.0279 135.042C30.7839 134.813 28.4943 134.757 26.2448 134.562C24.9774 134.452 23.7268 134.235 22.4678 134.072ZM187.884 134.629C187.562 135.862 186.89 137.02 186.358 138.201C186.084 138.79 185.562 139.34 185.482 139.96C185.307 141.288 185.032 142.456 184.2 143.589C183.343 144.773 182.823 146.226 182.278 147.604C181.645 149.203 181.265 150.914 180.534 152.443C179.915 153.719 178.93 154.791 178.129 155.966C176.839 157.822 175.676 159.788 174.274 161.554C173.119 163.016 171.494 164.132 170.44 165.646C169.031 167.682 167.716 169.696 165.311 170.707C164.339 171.131 163.395 171.722 162.598 172.409C160.226 174.473 158.571 177.374 155.266 178.241C155.116 178.272 154.988 178.396 154.88 178.505C153.541 179.649 152.075 180.446 150.232 180.425C149.78 180.426 149.242 180.738 148.883 181.061C147.003 182.642 144.866 183.334 142.431 183.399C141.905 183.406 141.407 184.032 140.845 184.268C139.565 184.806 138.284 185.471 136.943 185.71C135.693 185.945 134.297 185.272 133.253 186.607C133.047 186.881 132.32 186.784 131.832 186.779C131.162 186.781 130.5 186.622 129.839 186.68C127.402 186.871 124.956 187.459 122.562 187.26C120.633 187.099 118.822 186.992 116.888 187.318C115.175 187.625 113.367 187.609 111.652 187.012C111.328 186.888 110.941 187.044 110.586 187.005C109.601 186.939 108.595 186.888 107.627 186.717C106.286 186.504 104.975 186.097 103.639 185.849C102.9 185.714 101.921 186.064 101.419 185.696C98.3564 183.438 94.5089 184.419 91.224 182.994C89.2601 182.14 87.2348 181.33 84.8951 181.248C82.8964 181.184 80.904 180.055 78.9493 179.257C78.1179 178.908 77.4771 178.155 76.6568 177.736C74.8036 176.755 72.9411 175.719 70.9781 174.973C69.1358 174.265 67.8098 172.699 65.5695 172.561C64.1878 172.486 62.8803 171.031 61.5687 170.173C59.6692 168.913 57.5324 168.122 55.765 166.486C53.5537 164.454 50.8179 162.99 48.3472 161.224C46.9967 160.269 45.7187 159.198 44.4174 158.161C43.7459 157.602 43.08 157.008 42.4317 156.417C41.7834 155.827 41.1789 155.188 40.5307 154.598C40.1016 154.222 39.559 153.991 39.1913 153.572C38.1447 152.411 37.8057 150.442 35.6815 150.484C35.5904 150.488 35.5181 150.259 35.4317 150.119C33.9379 147.785 32.4237 145.466 30.915 143.112C30.6532 142.709 30.4732 142.247 30.1539 141.636C32.8363 141.953 35.3274 142.222 37.8073 142.561C39.581 142.788 41.338 143.121 43.1145 143.33C43.7175 143.408 44.4413 143.523 44.9683 143.281C46.9712 142.406 48.9676 143.283 50.9654 143.238C52.5488 143.182 54.0022 144.859 55.7414 143.707C55.8437 143.633 56.0611 143.631 56.1967 143.689C58.771 144.802 61.6376 143.16 64.2135 144.491C64.2488 144.496 64.3194 144.507 64.3603 144.478C66.0502 143.408 67.9202 144.283 69.631 143.994C71.9199 143.598 74.1638 145.654 76.4543 143.992C76.8019 143.74 77.6278 144.124 78.228 144.22C78.5458 144.27 78.8468 144.426 79.1376 144.418C81.8018 144.28 84.4863 144.128 87.2972 143.977C87.2409 145.017 87.1448 145.851 87.1722 146.705C87.2288 148.63 87.3206 150.561 87.4301 152.494C87.4678 153.169 87.4674 153.856 87.6548 154.5C88.2187 156.307 89.3468 158.094 89.3346 159.882C89.3305 162.304 90.5086 164.117 91.3475 166.13C92.1177 168.006 95.7217 168.903 96.9812 166.554C97.6816 165.219 97.4768 164.229 97.0881 163.028C96.5696 161.391 95.3038 160.016 95.5 158.095C95.5794 157.366 95.2871 156.47 94.9028 155.813C94.0747 154.416 93.8729 153.064 94.3542 151.514C94.801 150.066 94.3994 148.719 93.0241 147.236C94.0764 144.709 95.1122 141.945 96.369 139.271C96.8398 138.243 98.1503 137.511 98.4417 136.473C99.0814 134.152 101.447 133.84 102.784 132.371C103.897 131.174 105.97 130.888 107.574 130.131C108.001 129.945 108.294 129.468 108.71 129.244C109.319 128.943 109.987 128.724 110.632 128.537C111.239 128.362 111.871 128.372 112.46 128.194C113.58 127.866 114.678 127.444 115.789 127.06C116.612 126.774 117.436 126.489 118.286 126.263C118.72 126.151 119.193 126.136 119.669 126.103C121.866 125.945 124.117 126.013 126.25 125.574C127.649 125.308 127.922 123.815 127.674 122.528C127.331 120.811 126.439 120.163 124.931 120.195C122.913 120.255 120.894 120.549 118.907 119.727C118.311 119.488 117.401 119.977 116.66 120.202C115.88 120.44 115.16 120.868 114.369 121.068C113.216 121.373 112.04 121.602 110.859 121.741C109.808 121.863 108.448 122.226 107.748 121.735C106.297 120.727 105.344 119.203 103.457 118.433C102.352 117.987 101.347 116.562 100.042 115.776C98.4918 114.826 97.1117 113.486 95.8989 112.119C93.7491 109.699 90.7951 108.127 89.033 105.317C88.3246 104.193 87.2157 103.312 86.154 102.475C84.2286 100.922 82.1665 99.5462 80.2178 98.026C78.7215 96.8487 77.3331 95.5619 75.8777 94.3549C74.4548 93.1711 72.8394 92.1738 71.5857 90.8361C68.7636 87.7493 65.4058 85.3005 62.2489 82.6125C59.8434 80.5498 57.1403 78.7652 55.0499 76.4272C52.5268 73.6228 49.5155 71.5001 46.559 69.2596C45.9265 68.7978 45.6603 67.8517 45.0278 67.3899C44.203 66.771 43.1746 66.409 42.1332 65.9003C42.3779 65.2703 42.4535 64.7943 42.7157 64.5105C44.339 62.8339 45.5332 60.782 47.7482 59.5969C48.9918 58.9447 49.9153 57.5728 50.8405 56.4181C52.5337 54.3007 55.2383 53.338 56.7496 50.8844C57.5095 49.6312 59.4565 49.1086 60.9074 48.2904C61.3843 48.0226 61.9799 47.9183 62.4447 47.6125C63.7656 46.7013 64.9278 45.4215 66.3628 44.8177C68.9987 43.7175 71.8053 43.024 74.5099 42.0613C76.6344 41.3319 78.6412 40.2042 80.7908 39.6595C83.9023 38.8697 87.1093 38.2759 90.3004 37.8965C93.1216 37.5668 95.9846 37.6595 98.8253 37.5498C99.4627 37.5244 100.098 37.2818 100.722 37.3446C102.772 37.5432 104.731 38.5409 106.87 37.832C107.348 37.6728 107.976 37.9351 108.523 38.0219C110.094 38.2712 111.686 38.5056 113.264 38.8282C114.105 38.9979 114.901 39.3411 115.729 39.599C116.386 39.7936 117.04 40.0058 117.723 40.1503C119.054 40.4337 120.424 40.5788 121.726 40.9299C122.715 41.1954 123.624 41.7373 124.6 42.0909C126.085 42.6519 127.509 43.4923 129.238 42.9714C129.578 42.8807 130.086 43.2144 130.47 43.4199C131.237 43.8308 131.927 44.3921 132.728 44.7C133.955 45.1838 135.322 45.3465 136.476 45.9453C139.35 47.4497 142.126 49.1192 144.953 50.6885C145.736 51.1199 146.704 51.2916 147.34 51.8444C148.612 52.9501 149.751 54.2153 150.874 55.46C152.917 57.7544 156.09 58.4024 158.184 60.8314C159.172 62.0185 160.583 63.1642 161.792 64.332C163.047 65.5435 164.07 66.971 165.22 68.2742C167.569 70.9244 170.145 73.3937 172.23 76.2191C174.214 78.8838 175.749 81.8747 177.406 84.7767C177.957 85.7499 178.009 87.1319 178.747 87.8454C180.05 89.1006 180.26 90.7426 180.968 92.2107C181.524 93.3834 182.25 94.5109 182.862 95.6744C183.157 96.2093 183.396 96.7534 183.577 97.3244C183.946 98.5396 183.871 100.263 184.676 100.897C186.799 102.571 186.226 105.156 187.115 107.195C188.016 109.272 188.438 111.743 189.279 113.973C189.454 114.471 189.569 114.995 189.579 115.503C189.616 116.413 189.576 117.346 189.557 118.265C189.553 118.861 189.564 119.477 189.542 120.07C189.394 122.035 189.245 124 189.096 125.964C189.008 127.089 188.935 128.235 188.776 129.348C188.532 131.117 188.338 132.912 187.884 134.629Z" fill="#75391C"/>
<path d="M128.558 107.828C129.524 108.813 130.567 109.195 131.801 108.379C132.023 108.233 132.437 108.245 132.717 108.307C134.019 108.658 135.349 108.942 136.587 109.464C137.69 109.928 138.823 110.541 139.653 111.36C141.107 112.802 142.469 114.373 143.613 116.055C144.172 116.867 144.32 118.102 144.284 119.126C144.218 121.484 144.416 123.774 145.567 125.873C146.309 127.238 147.755 127.594 149.013 126.962C150.33 126.304 150.829 124.756 150.524 123.37C150.293 122.321 150.662 121.132 150.451 120.068C150.071 118.128 150.607 116.008 149.099 114.214C148.384 113.36 147.38 112.387 147.736 110.943C147.793 110.699 147.567 110.302 147.35 110.069C145.821 108.416 144.454 106.536 142.671 105.223C141.019 104.003 138.928 103.382 137.022 102.501C136.854 102.42 136.549 102.516 136.44 102.409C133.607 99.8444 130.332 101.44 127.247 101.492C125.09 101.512 122.975 101.954 121.137 103.271C119.89 104.175 119.157 106.626 119.808 107.995C120.35 109.147 121.776 109.626 123.601 109.301C124.587 109.132 125.564 108.908 126.553 108.83C127.305 108.768 128.079 108.909 128.829 108.974C128.729 108.578 128.646 108.186 128.546 107.79L128.558 107.828Z" fill="#75391C"/>
<path d="M140.348 93.6293C140.823 93.8311 141.128 94.0783 141.404 94.0498C144.09 93.7711 146.106 95.555 148.419 96.3739C149.568 96.7731 150.485 97.8404 151.551 98.5337C152.127 98.8963 152.803 99.3108 153.435 99.3207C154.502 99.3272 155.136 99.6629 155.347 100.727C155.421 101.064 155.527 101.533 155.76 101.66C157.23 102.435 157.551 104.059 158.492 105.202C158.522 105.243 158.528 105.317 158.561 105.34C159.964 106.304 159.964 107.786 160.306 109.286C160.65 110.877 161.547 112.411 162.443 113.837C163.134 114.959 164.566 114.716 165.417 114.254C166.172 113.832 166.748 112.712 166.946 111.804C167.476 109.375 166.327 107.15 165.59 104.955C165 103.198 163.876 101.61 162.859 100.039C161.898 98.5665 160.895 97.0156 159.616 95.8366C158.29 94.6139 156.64 93.7195 155.072 92.7658C153.522 91.8149 151.771 91.2119 150.575 89.6301C150.096 88.9939 148.762 88.963 147.805 88.7208C146.972 88.4982 146.095 88.4315 145.268 88.1736C143.491 87.6206 141.789 86.8264 139.988 86.4322C138.172 86.0175 136.393 86.9644 136.038 88.1734C135.523 89.9355 136.474 91.6952 138.365 92.5555C139.108 92.8903 139.794 93.3606 140.34 93.6822L140.348 93.6293Z" fill="#75391C"/>
<path d="M82.2765 67.3705C80.9927 66.6788 79.761 65.8869 78.4251 65.2954C77.4934 64.8945 76.3244 64.9621 75.5032 64.4341C74.056 63.5177 72.5527 63.2972 70.9349 63.4563C69.0057 63.6383 67.0645 63.7822 65.1603 64.1489C63.1623 64.5369 62.0826 66.2093 61.1664 67.7631C60.2707 69.3021 62.3387 71.7812 64.1759 71.4942C65.4556 71.2996 66.7102 70.9202 67.9323 70.5176C69.8431 69.8808 71.6581 69.7349 73.5178 70.7891C74.3974 71.2902 75.5552 71.2931 76.4609 71.7441C79.4466 73.2301 81.3661 75.5049 82.4356 78.8017C82.9477 80.3651 82.6198 81.6327 82.5782 83.036C82.5421 84.404 82.9653 85.5015 84.2782 85.7821C85.6439 86.0711 87.1577 85.7689 87.7931 84.3875C88.3187 83.2418 88.4403 81.9054 88.624 80.6331C88.7706 79.4814 88.8317 78.298 88.7784 77.1508C88.7398 76.3674 88.6241 75.4995 88.2193 74.8569C87.4989 73.6942 86.918 72.3367 85.4008 71.861C85.2122 71.7949 85.1401 71.2231 85.1198 70.8945C85.0753 69.0076 83.4914 68.2682 82.6409 67.0126C82.5126 67.1369 82.3843 67.2611 82.256 67.3854L82.2765 67.3705Z" fill="#75391C"/>
<path d="M76.3598 48.1933C75.3505 50.2204 76.1905 51.9985 78.4241 52.4071C81.1668 52.9146 83.9431 53.2104 86.6542 53.8032C87.8258 54.0614 88.9275 54.7604 90.0339 55.3155C91.4412 56.0269 93.003 56.5639 94.1426 57.5942C95.4865 58.8197 96.4779 60.4411 97.5801 61.9355C98.1623 62.7148 98.5781 63.6303 99.1631 64.3919C100.107 65.6263 101.467 65.842 102.829 65.0097C104.093 64.2341 104.371 63.0491 103.738 61.7918C102.875 60.0461 101.816 58.3958 100.876 56.6742C100.542 56.0427 100.5 55.1684 100.026 54.7317C98.9367 53.7274 97.6464 52.9623 96.4901 52.0378C95.9755 51.6308 95.3931 51.1949 95.1212 50.6276C94.5717 49.5281 93.9951 48.7136 92.5751 48.9945C92.3316 49.0462 92.0353 48.7461 91.7668 48.6132C91.0497 48.2283 90.369 47.6141 89.6099 47.4937C87.6447 47.2181 85.6256 47.1689 83.6437 46.9991C83.2497 46.9727 82.8428 46.7997 82.4944 46.5998C80.1499 45.1794 77.5459 45.8509 76.3747 48.2138L76.3598 48.1933Z" fill="#75391C"/>
<path d="M136.074 146.691C134.475 145.823 132.221 146.911 131.703 149.034C131.339 150.531 130.483 152.275 132.314 153.397C133.271 153.983 134.598 154.627 135.554 154.417C136.942 154.113 138.66 153.319 139.307 152.211C139.988 150.999 139.313 149.32 137.898 148.318C137.23 147.85 136.672 147.256 136.072 146.709L136.074 146.691Z" fill="#75391C"/>
<path d="M119.826 144.619C120.685 142.514 119.984 140.884 117.838 140.038C116.544 139.525 113.338 140.68 112.807 141.861C112.27 143.077 113.34 146.03 114.51 146.523C116.409 147.331 119.096 146.365 119.808 144.616L119.826 144.619Z" fill="#75391C"/>
<path d="M120.051 164.99C122.059 165.905 123.834 165.554 124.443 164.114C125.167 162.404 124.391 159.533 123.014 158.863C121.553 158.143 118.503 159.575 117.771 161.339C117.303 162.458 118.414 164.242 120.051 164.99Z" fill="#75391C"/>
</svg>
