<svg width="200" height="188" viewBox="0 0 200 188" fill="none" xmlns="http://www.w3.org/2000/svg">
<path d="M199.162 44.8064C199.483 47.395 199.161 49.9479 198.768 52.5009C198.429 54.8217 198.125 57.1604 197.714 59.4634C197.374 61.4272 196.891 63.3552 196.427 65.2833C196.248 66.0688 196.176 67.1221 195.64 67.5506C194.425 68.5325 194.693 69.7108 194.729 70.9426C194.729 71.3532 194.711 71.7995 194.604 72.1923C194.014 74.2632 193.317 76.3162 192.763 78.405C192.351 79.9582 192.316 81.672 191.654 83.1002C191.064 84.3856 190.904 85.6531 190.814 86.9742C190.796 87.242 190.85 87.5277 190.761 87.7419C190.028 89.4201 189.188 91.0803 188.526 92.7763C188.115 93.8118 187.633 94.9722 187.758 96.0077C187.919 97.3466 188.687 98.6142 189.152 99.9352C189.295 100.346 189.509 100.899 189.366 101.221C188.562 102.899 189.009 104.452 189.652 106.041C190.26 107.487 190.832 108.951 191.225 110.45C191.44 111.2 190.975 112.182 191.279 112.825C192.101 114.521 191.386 116.145 191.279 117.788C191.136 120.091 190.832 122.376 190.618 124.661C190.457 126.428 190.242 128.178 190.189 129.945C190.099 132.266 190.135 134.587 190.117 136.908C190.117 137.051 190.064 137.229 189.974 137.336C188.902 138.515 188.937 139.943 188.902 141.425C188.884 142.282 188.473 143.156 188.151 143.978C187.186 146.406 186.185 148.798 185.184 151.208C185.309 151.261 185.416 151.333 185.541 151.404C184.129 153.582 182.753 155.778 181.269 157.903C180.733 158.67 179.875 159.188 179.214 159.902C177.373 161.866 175.621 163.919 173.744 165.829C172.118 167.49 170.205 168.882 168.739 170.649C167.47 172.185 165.969 173.185 164.217 173.988C163.627 174.256 163.109 174.684 162.573 175.059C160.928 176.166 159.373 177.451 157.622 178.362C155.834 179.326 153.797 179.843 151.956 180.7C150.186 181.522 148.595 182.843 146.754 183.414C144.699 184.057 142.464 184.11 140.301 184.432C139.408 184.557 138.532 184.717 137.656 184.86C137.03 184.949 136.423 185.074 135.815 185.146C134.457 185.271 133.08 185.164 131.865 186.038C131.418 186.378 130.703 186.467 130.095 186.52C126.842 186.842 123.589 187.11 120.336 187.359C118.28 187.52 116.225 187.77 114.187 187.716C112.024 187.663 109.879 187.252 107.699 187.074C106.698 186.985 105.625 187.234 104.642 187.002C102.783 186.592 100.889 186.485 99.0298 186.11C96.6525 185.628 94.311 184.378 91.7549 185.003C91.4689 185.074 91.1293 184.896 90.8254 184.807C88.609 184.253 86.3569 183.771 84.1762 183.111C81.2627 182.2 78.385 181.147 75.4894 180.165C75.1319 180.04 74.8101 179.897 74.4526 179.808C71.843 179.165 69.2333 178.505 66.6058 177.898C65.7478 177.701 64.7826 177.862 63.9961 177.541C62.6913 176.987 61.5295 176.112 60.2426 175.505C58.8305 174.827 57.3469 174.291 55.8991 173.684C55.4344 173.488 54.8088 173.399 54.5585 173.042C52.8247 170.757 50.1078 170.667 47.7127 170.007C46.2827 169.614 44.8528 169.614 44.3523 167.882C44.2808 167.668 43.9948 167.472 43.7803 167.365C41.8499 166.508 39.848 165.794 38.0248 164.776C35.8442 163.562 33.7171 162.205 31.733 160.688C29.5166 158.992 27.479 157.046 25.3519 155.189C25.0838 154.939 24.8336 154.653 24.5654 154.386C24.1365 153.939 23.7254 153.172 23.2428 153.118C21.5626 152.904 21.0085 151.672 20.1863 150.512C19.3999 149.405 18.238 148.548 17.2191 147.637C16.6472 147.12 15.6819 146.798 15.4317 146.173C14.681 144.299 12.4645 143.371 12.2679 141.157C12.2679 140.996 11.8569 140.871 11.6782 140.693C11.3207 140.318 10.9631 139.925 10.6414 139.514C10.3733 139.157 10.1588 138.747 9.9264 138.354C9.35442 137.336 8.76456 136.337 8.24621 135.301C7.8351 134.426 7.53125 133.516 7.13801 132.623C6.51241 131.231 5.56513 129.892 5.29702 128.446C5.01103 126.928 4.33184 125.714 3.65261 124.429C3.29513 123.768 3.09847 123.001 2.9376 122.251C2.58011 120.662 2.25841 119.073 1.97243 117.466C1.63281 115.592 1.15014 113.789 0.220672 112.093C-0.0116934 111.664 0.184924 110.986 0.220672 110.433C0.238547 109.915 0.41732 109.379 0.363697 108.879C0.149206 106.291 -0.404867 103.72 0.506722 101.149C0.631842 100.792 0.417316 100.328 0.470938 99.9352C0.578184 99.1497 0.667573 98.3285 0.935687 97.5966C1.25742 96.6325 1.79364 95.7399 2.15113 94.7758C3.08059 92.2943 3.61685 89.5807 4.97529 87.3491C6.02988 85.5996 7.67427 84.1178 8.72885 82.2611C9.28295 81.2614 10.1767 80.4402 10.9631 79.5833C12.4646 77.9408 14.0554 76.3698 15.5211 74.6917C16.3075 73.799 17.0225 72.8171 17.5766 71.7638C18.4882 70.0143 18.9529 67.9434 20.1327 66.4259C22.0631 63.9265 24.4047 61.8021 25.781 58.8385C26.4066 57.5174 27.6041 56.4463 28.5872 55.3216C30.1958 53.5185 31.8761 51.7689 33.4848 49.9658C33.878 49.5195 34.2355 48.9839 34.4321 48.4305C34.8611 47.2343 35.1649 46.0204 35.5224 44.8064C35.9514 43.3425 36.3089 41.8607 36.8273 40.4325C37.2384 39.2721 37.8997 38.2009 38.3108 37.0405C39.1151 34.7732 39.848 32.4881 40.5629 30.203C40.8847 29.1854 40.9741 28.0606 41.421 27.0966C42.0287 25.7398 42.976 24.6508 43.1547 23.0084C43.3514 21.0981 44.245 19.2593 44.8885 17.4026C45.1566 16.5636 45.4248 15.7066 45.8538 14.939C46.4079 13.9214 47.1407 12.993 47.7306 12.0111C47.9987 11.5648 48.088 10.9935 48.3561 10.5472C49.6967 8.3692 51.0195 6.17335 52.4673 4.06674C53.3074 2.83491 53.4146 0.924668 55.4165 0.674731C57.0788 0.478353 58.8484 -0.271443 60.3498 0.103462C62.3696 0.621188 64.3 1.76375 66.0159 2.99558C68.143 4.54875 70.0377 6.42327 71.9681 8.20853C73.112 9.27969 74.1488 10.4758 75.257 11.6005C76.7942 13.1537 78.6174 14.5284 79.8507 16.2958C81.0483 18.0096 81.8705 19.9556 83.7473 21.1338C84.1405 21.3838 84.3371 21.9729 84.6052 22.4192C85.7313 24.4366 86.8573 26.4896 88.0191 28.5069C88.1264 28.7033 88.4125 28.864 88.6448 28.8997C90.468 29.1853 92.2733 29.5602 94.0965 29.6852C95.4549 29.7745 96.8312 29.5246 98.2075 29.4532C98.9404 29.4174 99.7268 29.2746 100.424 29.4532C101.389 29.7031 102.247 30.4172 103.212 30.5778C105.768 30.9885 108.378 31.0956 110.934 31.5419C113.722 32.0239 116.475 32.738 119.246 33.3629C119.389 33.3986 119.567 33.47 119.639 33.5949C120.246 34.4697 120.997 34.2733 121.891 34.0591C122.499 33.9163 123.428 33.9877 123.839 34.3626C125.645 36.0229 128.004 36.5763 130.167 37.1655C131.472 37.5047 132.776 37.6832 134.028 38.3259C137.692 40.254 141.642 41.7179 145.002 44.0566C147.415 45.7169 149.328 45.7704 151.598 44.4493C153.475 43.3782 155.137 42.0749 157.586 42.182C159.767 42.2892 161.483 40.2897 163.967 40.486C165.629 40.611 167.363 39.6113 169.079 39.2185C169.83 39.04 170.652 39.2007 171.421 39.0936C172.136 39.0043 172.851 38.8258 173.53 38.5937C174.388 38.3259 175.174 37.7546 176.032 37.6832C177.409 37.5404 178.821 37.7725 180.197 37.7368C181.823 37.6654 183.432 37.4511 185.059 37.344C186.149 37.2726 187.257 37.219 188.348 37.2726C189.384 37.3261 190.439 37.4868 191.458 37.701C192.047 37.826 192.602 38.3259 193.174 38.3616C194.764 38.4151 196.105 38.6115 196.909 40.3075C197.571 41.7536 198.554 43.039 199.376 44.4136C199.412 44.4672 199.144 44.6814 199.162 44.8064Z" fill="#F6DFA4"/>
<path d="M199.376 44.4136C198.554 43.039 197.571 41.7536 196.909 40.3075C196.105 38.6115 194.764 38.4151 193.174 38.3616C192.602 38.3259 192.047 37.826 191.458 37.701C190.439 37.4868 189.384 37.3261 188.348 37.2726C187.257 37.219 186.149 37.2726 185.059 37.344C183.432 37.4511 181.823 37.6654 180.197 37.7368C178.821 37.7725 177.409 37.5404 176.032 37.6832C175.174 37.7546 174.388 38.3259 173.53 38.5937C172.851 38.8258 172.136 39.0043 171.421 39.0936C170.652 39.2007 169.83 39.04 169.079 39.2185C167.363 39.6113 165.629 40.611 163.967 40.486C161.483 40.2897 159.767 42.2892 157.586 42.182C155.137 42.0749 153.475 43.3782 151.598 44.4493C149.328 45.7704 147.415 45.7169 145.002 44.0566C141.642 41.7179 137.692 40.254 134.028 38.3259C132.776 37.6832 131.472 37.5047 130.167 37.1655C128.004 36.5763 125.645 36.0229 123.839 34.3626C123.428 33.9877 122.499 33.9163 121.891 34.0591C120.997 34.2733 120.246 34.4697 119.639 33.5949C119.567 33.47 119.389 33.3986 119.246 33.3629C116.475 32.738 113.722 32.0239 110.934 31.5419C108.378 31.0956 105.768 30.9885 103.212 30.5778C102.247 30.4172 101.389 29.7031 100.424 29.4532C99.7268 29.2746 98.9404 29.4174 98.2075 29.4532C96.8312 29.5246 95.4549 29.7745 94.0965 29.6852C92.2733 29.5602 90.468 29.1853 88.6448 28.8997C88.4124 28.864 88.1264 28.7033 88.0191 28.5069C86.8573 26.4896 85.7313 24.4366 84.6052 22.4192C84.3371 21.9729 84.1405 21.3838 83.7473 21.1338C81.8705 19.9556 81.0483 18.0096 79.8507 16.2958C78.6174 14.5284 76.7942 13.1537 75.257 11.6005C74.1488 10.4758 73.112 9.27969 71.9681 8.20853C70.0377 6.42327 68.1429 4.54875 66.0159 2.99558C64.3 1.76375 62.3696 0.621188 60.3498 0.103462C58.8484 -0.271443 57.0788 0.478353 55.4165 0.674731C53.4146 0.924668 53.3074 2.83491 52.4673 4.06674C51.0195 6.17335 49.6967 8.3692 48.3561 10.5472C48.088 10.9935 47.9987 11.5648 47.7305 12.0111C47.1407 12.993 46.4079 13.9214 45.8538 14.939C45.4248 15.7066 45.1566 16.5636 44.8885 17.4026C44.245 19.2593 43.3514 21.0981 43.1547 23.0084C42.976 24.6508 42.0287 25.7398 41.421 27.0966C40.9741 28.0606 40.8847 29.1854 40.5629 30.203C39.848 32.4881 39.1151 34.7732 38.3108 37.0405C37.8997 38.2009 37.2384 39.2721 36.8273 40.4325C36.3089 41.8607 35.9514 43.3425 35.5224 44.8064C35.1649 46.0204 34.8611 47.2343 34.4321 48.4305C34.2355 48.9839 33.878 49.5195 33.4848 49.9658C31.8761 51.7689 30.1958 53.5185 28.5872 55.3216C27.6041 56.4463 26.4066 57.5174 25.781 58.8385C24.4047 61.8021 22.0631 63.9265 20.1327 66.4259C18.9529 67.9434 18.4882 70.0143 17.5766 71.7638C17.0225 72.8171 16.3075 73.799 15.5211 74.6917C14.0554 76.3698 12.4646 77.9408 10.9631 79.5833C10.1767 80.4402 9.28295 81.2614 8.72885 82.2611C7.67427 84.1178 6.02988 85.5996 4.97529 87.3491C3.61685 89.5807 3.08059 92.2943 2.15113 94.7758C1.79364 95.7399 1.25742 96.6325 0.935687 97.5966C0.667573 98.3285 0.578184 99.1497 0.470938 99.9352C0.417316 100.328 0.631842 100.792 0.506722 101.149C-0.404867 103.72 0.149206 106.291 0.363697 108.879C0.41732 109.379 0.238547 109.915 0.220672 110.433C0.184924 110.986 -0.0116934 111.664 0.220672 112.093C1.15013 113.789 1.63281 115.592 1.97243 117.466C2.25841 119.073 2.58011 120.662 2.9376 122.251C3.09847 123.001 3.29513 123.768 3.65261 124.429C4.33184 125.714 5.01103 126.928 5.29702 128.446C5.56513 129.892 6.51241 131.231 7.13801 132.623C7.53125 133.516 7.8351 134.426 8.24621 135.301C8.76456 136.337 9.35442 137.336 9.9264 138.354C10.1588 138.747 10.3733 139.157 10.6414 139.514C10.9631 139.925 11.3207 140.318 11.6781 140.693C11.8569 140.871 12.2679 140.996 12.2679 141.157C12.4645 143.371 14.681 144.299 15.4317 146.173C15.6819 146.798 16.6472 147.12 17.2191 147.637C18.238 148.548 19.3999 149.405 20.1863 150.512C21.0085 151.672 21.5626 152.904 23.2428 153.118C23.7254 153.172 24.1365 153.939 24.5654 154.386C24.8336 154.653 25.0838 154.939 25.3519 155.189C27.479 157.046 29.5166 158.992 31.733 160.688C33.7171 162.205 35.8442 163.562 38.0248 164.776C39.848 165.794 41.8499 166.508 43.7803 167.365C43.9948 167.472 44.2808 167.668 44.3523 167.882C44.8528 169.614 46.2827 169.614 47.7127 170.007C50.1078 170.667 52.8247 170.757 54.5585 173.042C54.8088 173.399 55.4344 173.488 55.8991 173.684C57.3469 174.291 58.8305 174.827 60.2425 175.505C61.5295 176.112 62.6913 176.987 63.9961 177.541C64.7826 177.862 65.7478 177.701 66.6058 177.898C69.2333 178.505 71.843 179.165 74.4526 179.808C74.8101 179.897 75.1319 180.04 75.4894 180.165C78.385 181.147 81.2627 182.2 84.1762 183.111C86.3569 183.771 88.609 184.253 90.8254 184.807C91.1293 184.896 91.4689 185.074 91.7549 185.003C94.3109 184.378 96.6525 185.628 99.0298 186.11C100.889 186.485 102.783 186.592 104.642 187.002C105.625 187.234 106.698 186.985 107.699 187.074C109.879 187.252 112.024 187.663 114.187 187.716C116.225 187.77 118.28 187.52 120.336 187.359C123.589 187.11 126.842 186.842 130.095 186.52C130.703 186.467 131.418 186.378 131.865 186.038C133.08 185.164 134.457 185.271 135.815 185.146C136.423 185.074 137.03 184.949 137.656 184.86C138.532 184.717 139.408 184.557 140.301 184.432C142.464 184.11 144.699 184.057 146.754 183.414C148.595 182.843 150.186 181.522 151.955 180.7C153.797 179.843 155.834 179.326 157.622 178.362C159.373 177.451 160.928 176.166 162.573 175.059C163.109 174.684 163.627 174.256 164.217 173.988C165.969 173.185 167.47 172.185 168.739 170.649C170.205 168.882 172.118 167.49 173.744 165.829C175.621 163.919 177.373 161.866 179.214 159.902C179.875 159.188 180.733 158.67 181.269 157.903C182.753 155.778 184.129 153.582 185.541 151.404C185.416 151.333 185.309 151.261 185.184 151.208C186.185 148.798 187.186 146.406 188.151 143.978C188.473 143.156 188.884 142.282 188.902 141.425C188.937 139.943 188.902 138.515 189.974 137.336C190.064 137.229 190.117 137.051 190.117 136.908C190.117 134.587 190.099 132.266 190.189 129.945C190.242 128.178 190.457 126.428 190.618 124.661C190.832 122.376 191.136 120.091 191.279 117.788C191.386 116.145 192.101 114.521 191.279 112.825C190.975 112.182 191.44 111.2 191.225 110.45C190.832 108.951 190.26 107.487 189.652 106.041C189.009 104.452 188.562 102.899 189.366 101.221C189.509 100.899 189.295 100.346 189.152 99.9352C188.687 98.6142 187.919 97.3466 187.758 96.0077C187.633 94.9722 188.115 93.8118 188.526 92.7763C189.188 91.0803 190.028 89.4201 190.761 87.7419C190.85 87.5277 190.796 87.242 190.814 86.9742C190.904 85.6531 191.064 84.3856 191.654 83.1002C192.316 81.672 192.351 79.9582 192.763 78.405C193.317 76.3162 194.014 74.2632 194.604 72.1923C194.711 71.7995 194.729 71.3532 194.729 70.9426C194.693 69.7108 194.425 68.5325 195.64 67.5506C196.176 67.1221 196.248 66.0688 196.427 65.2833C196.891 63.3552 197.374 61.4272 197.714 59.4634C198.125 57.1604 198.429 54.8217 198.768 52.5009C199.161 49.9479 199.483 47.395 199.162 44.8064C199.162 44.6814 199.412 44.4672 199.376 44.4136ZM184.487 124.143C184.362 126.339 183.968 128.535 184.165 130.695C184.415 133.23 183.593 135.444 182.932 138.068C182.002 137.676 181.269 137.408 180.554 137.087C178.374 136.105 176.193 135.105 173.995 134.141C173.78 134.034 173.423 133.927 173.244 134.034C172.189 134.676 171.456 133.837 170.598 133.552C170.044 133.355 169.526 133.052 168.954 132.873C166.183 131.999 163.377 131.142 160.589 130.32C160.124 130.195 159.498 130.178 159.105 130.392C157.3 131.374 156.639 132.588 156.925 134.052C157.157 135.212 159.302 136.605 160.785 136.872C162.644 137.194 164.45 137.747 166.273 138.265C168.221 138.8 170.152 139.354 172.082 139.961C172.6 140.121 173.083 140.407 173.566 140.693C174.102 141.014 174.566 141.46 175.121 141.71C176.175 142.174 177.552 142.246 178.266 142.996C179.25 144.013 180.072 144.62 181.841 143.817C180.912 145.549 179.839 146.816 179.553 148.227C179.107 150.458 178.463 152.261 176.372 153.529C175.192 154.225 174.173 154.6 172.994 153.886C171.653 153.065 170.384 152.136 169.097 151.226C168.185 150.583 167.292 149.94 166.416 149.262C166.04 148.959 165.79 148.476 165.397 148.227C163.252 146.959 160.857 145.977 158.98 144.406C157.55 143.21 156.031 142.692 154.368 142.228C152.956 141.835 151.991 142.549 151.383 143.621C150.847 144.567 150.615 145.781 151.652 146.638C153.028 147.798 154.476 148.869 155.941 149.887C157.3 150.833 159.105 151.386 160.035 152.618C160.875 153.743 161.357 154.725 162.823 154.332C164.396 157.456 167.935 157.831 170.259 159.884C169.866 160.384 169.58 160.902 169.151 161.277C167.595 162.651 165.933 163.955 164.396 165.365C163.592 166.097 163.091 167.293 162.18 167.811C160.768 168.614 159.141 169.007 157.496 169.614C157.157 169.203 156.871 168.703 156.46 168.364C154.44 166.793 154.19 164.115 152.42 162.259C150.079 159.777 148.22 156.814 146.182 154.046C145.271 152.833 143.608 152.279 142.357 152.743C140.659 153.386 140.963 154.743 140.909 156.1C140.784 159.027 143.537 160.081 144.752 162.152C146.2 164.615 147.952 166.9 149.578 169.257C150.007 169.9 150.365 170.596 150.901 171.131C152.116 172.363 151.938 173.363 150.311 173.934C148.935 174.434 147.505 174.863 146.164 175.47C145.557 175.737 145.181 176.648 144.573 176.773C141.285 177.523 137.853 177.308 134.6 178.433C132.901 179.022 131.096 179.308 129.327 179.683C128.755 179.808 128.058 179.968 127.557 179.772C126.395 179.308 123.821 179.254 122.82 179.665C121.98 180.022 121.015 180.111 120.104 180.272C119.657 180.343 119.156 180.218 118.709 180.326C115.778 180.95 112.864 181.54 110.058 179.844C109.736 179.647 109.093 179.504 108.861 179.665C106.93 181.147 104.821 180.254 102.98 179.808C99.6195 178.951 96.295 178.165 92.7917 178.094C91.3975 178.058 90.0032 177.416 88.609 177.023C85.4989 176.148 82.1564 176.166 79.2429 174.416C78.1526 173.738 76.7405 173.595 75.4536 173.274C73.1657 172.685 70.8598 172.22 68.5898 171.578C66.9096 171.096 65.2653 170.435 63.6387 169.793C63.0667 169.578 62.5841 169.168 62.03 168.882C61.2256 168.454 60.3498 168.132 59.5633 167.668C58.2942 166.936 57.0966 166.097 55.8454 165.329C55.3986 165.062 54.9339 164.776 54.4334 164.651C53.0571 164.294 51.502 164.276 50.2866 163.633C47.6412 162.259 45.1746 160.545 42.6185 159.01C42.261 158.795 41.7963 158.777 41.3673 158.635C40.8847 158.474 40.2948 158.403 39.9731 158.081C38.8827 156.974 37.8997 155.76 36.8808 154.6C36.72 154.439 36.5055 154.225 36.3089 154.189C35.2185 154.029 34.4143 153.797 33.4848 152.797C32.5553 151.815 31.1611 151.029 30.0707 149.976C28.051 148.012 25.4771 146.62 23.8147 144.245C23.6181 143.978 23.2249 143.853 22.9747 143.603C21.9559 142.532 20.9013 141.478 19.9718 140.318C19.4535 139.675 19.2747 138.729 18.7385 138.122C17.4694 136.658 16.093 135.319 15.8607 133.23C15.7892 132.713 15.4317 132.07 15.0206 131.784C12.5182 130.017 12.6076 127.053 11.3385 124.59C14.3057 123.858 17.0761 123.161 19.8645 122.501C20.4007 122.376 20.9728 122.412 21.509 122.322C22.2955 122.197 23.0462 122.001 23.8147 121.858C25.0123 121.626 26.2278 121.251 27.4433 121.251C28.8732 121.251 29.8384 120.698 30.6248 119.591C31.4471 118.413 31.5365 117.234 30.464 116.217C28.766 114.61 26.6746 114.753 24.6012 115.181C22.5457 115.61 20.508 116.128 18.4704 116.556C16.1288 117.038 13.7694 117.377 11.4458 117.949C9.26511 118.466 8.49654 117.913 8.22843 115.503C7.97819 113.36 7.56704 111.236 7.29893 109.094C7.12018 107.54 7.08441 105.987 6.94142 103.881C9.55107 104.702 11.6245 105.345 13.698 105.987C14.0554 106.094 14.4665 106.166 14.8418 106.112C17.8268 105.648 20.6153 106.077 23.1534 107.826C23.4573 108.04 23.9041 108.04 24.2795 108.076C25.5664 108.255 26.8891 108.29 28.1403 108.594C29.4451 108.897 31.5365 107.897 32.0012 106.541C32.3944 105.398 31.2326 103.488 29.9456 103.131C28.1403 102.649 26.3172 102.22 24.5298 101.667C23.7433 101.417 23.0641 100.792 22.2955 100.631C20.3293 100.239 18.3453 100.007 16.3791 99.7031C14.6989 99.4532 13.0366 99.1676 11.3564 98.9176C9.78349 98.7034 8.55011 97.3645 8.96122 95.9362C9.42595 94.3831 10.0516 92.812 10.8738 91.4195C12.0177 89.5093 13.4298 87.7598 14.7525 85.9031C15.6819 86.635 16.6293 87.6169 17.7553 88.2953C20.7403 90.1163 23.8147 91.7766 26.8176 93.5618C28.6587 94.6687 30.4283 95.9184 32.2336 97.1145C32.6804 97.418 33.1094 97.9536 33.592 98.025C35.6297 98.2928 36.6485 97.5251 37.0418 95.6685C37.5244 93.419 36.9882 92.3836 35.0399 91.5981C34.3249 91.3124 33.6099 91.0089 32.9843 90.5626C31.3041 89.3844 29.7311 88.0811 28.0509 86.9385C26.9606 86.2066 25.7094 85.7246 24.5833 85.064C23.1355 84.1892 21.7593 83.1895 20.2936 82.3861C19.5607 81.9934 19.2568 81.7434 19.8109 81.0293C20.7225 79.8689 21.634 78.7085 22.5456 77.5481C22.7959 77.2089 23.0819 76.9054 23.2428 76.5305C23.7969 75.2451 24.3331 73.9418 24.7799 72.6207C25.4234 70.657 26.5138 69.0502 28.194 67.8005C28.8374 67.3007 29.3558 66.5687 29.7669 65.8725C31.4828 62.9268 32.734 59.6419 36.2016 58.1601C36.291 58.1601 36.3447 57.9995 36.3625 57.9102C36.7558 56 38.1499 55.0538 39.7944 54.3218C40.0625 54.2147 40.2949 53.9648 40.5094 53.7327C41.7248 52.4473 42.8688 51.1441 44.7456 50.6799C45.6035 50.4657 46.5151 49.8587 47.0871 49.1803C48.4098 47.6271 49.9827 46.6095 51.931 46.1275C52.2348 46.0561 52.5387 45.9311 52.7711 45.7526C54.1653 44.6636 55.488 43.521 57.3648 43.2711C58.2943 43.1461 59.2237 42.7355 60.046 42.2535C62.03 41.1109 64.1749 40.7003 66.3913 40.4682C66.6952 40.4504 66.9811 40.3432 67.2671 40.254C68.8222 39.7898 70.2521 38.8258 72.0395 39.3078C72.54 39.4327 73.3265 39.1292 73.7734 38.7543C74.9352 37.8082 76.2401 37.5404 77.5985 37.8796C80.5657 38.6472 83.2467 37.2547 85.9279 36.5763C87.4651 36.1836 88.7521 36.0765 90.2356 36.3085C91.6298 36.5406 93.1491 36.9512 94.4182 36.612C96.0269 36.1836 97.4747 36.2193 99.0298 36.5406C99.8877 36.737 100.781 37.0226 101.657 36.9869C105 36.8798 108.217 37.6118 111.417 38.4687C112.9 38.8793 114.33 39.4684 115.796 39.9505C117.834 40.611 120.282 40.1469 121.837 42.1464C121.945 42.2892 122.248 42.4141 122.409 42.3606C123.929 41.95 124.965 42.9497 126.199 43.4674C126.932 43.7709 127.843 43.646 128.665 43.7174C129.059 43.7531 129.488 43.7174 129.827 43.878C131.918 44.7885 134.01 45.6454 136.03 46.6988C138.335 47.877 140.534 49.2695 142.822 50.4835C144.466 51.3583 146.021 52.2509 147.326 53.6791C148.416 54.8753 149.578 56.2856 151.455 56.4998C151.795 56.5534 152.134 56.9462 152.42 57.2496C153.153 58.0352 153.725 59.0885 154.619 59.6062C156.621 60.7845 158.837 61.6057 159.588 64.1229C159.641 64.3014 159.892 64.4085 160.035 64.5514C161.679 66.0331 163.324 67.5149 164.95 69.0145C165.254 69.3002 165.504 69.6394 165.737 69.9964C166.487 71.1568 167.149 72.3708 167.953 73.4777C169.133 75.0665 170.956 76.4055 171.51 78.1551C172.582 81.5114 175.889 83.6715 176.157 87.3491C176.157 87.492 176.3 87.6348 176.425 87.7241C178.266 89.0452 178.535 91.2053 179.25 93.0977C179.822 94.5973 179.75 96.5075 180.662 97.7037C181.77 99.1676 182.592 100.56 182.556 102.345C182.485 106.969 184.254 111.325 184.469 115.967C184.594 118.663 183.039 121.358 184.505 124.001C184.522 124.036 184.505 124.108 184.505 124.143H184.487Z" fill="#75391C"/>
<path d="M58.7411 122.751C60.5821 124.108 62.4053 125.447 64.2464 126.803C65.8908 128.017 68.0358 128.125 69.6623 128.999C72.4328 130.499 74.8101 128.624 77.384 128.946C78.7067 129.106 80.1546 127.696 81.6381 127.393C83.6579 126.982 84.194 124.733 85.8921 124.322C86.4998 125.286 87.1255 126.268 87.7153 127.25C87.8762 127.5 88.0371 127.857 87.9835 128.107C87.626 129.678 88.4482 130.624 89.5206 131.588C91.1293 133.034 92.7201 134.534 94.0786 136.194C95.1689 137.533 96.7598 137.622 98.0467 137.819C100.156 138.14 102.229 139.068 104.624 138.158C106.233 137.551 108.306 138.176 110.165 138.176C110.809 138.176 111.56 138.122 112.096 137.819C113.454 137.015 114.831 136.908 116.511 137.354C116.153 139.05 115.706 140.711 115.492 142.425C115.385 143.228 115.724 144.085 115.903 144.906C116.1 145.817 116.529 146.727 116.511 147.62C116.493 148.869 116.547 149.94 117.691 150.726C118.084 150.994 118.245 151.565 118.548 151.958C120.014 153.85 120.801 156.225 122.588 157.885C123.607 158.813 124.679 159.742 125.841 160.474C127.736 161.67 129.273 161.402 130.56 159.599C130.935 159.063 131.168 157.992 130.882 157.51C129.791 155.725 128.326 154.154 127.253 152.368C126.109 150.458 123.5 149.423 123.786 146.62C123.821 146.209 123.392 145.727 123.16 145.281C121.444 141.978 122.624 138.961 124.054 135.962C124.572 134.891 125.198 133.891 125.752 132.856C125.823 132.713 125.805 132.516 125.895 132.409C127.271 130.927 128.54 129.303 130.095 128.035C131.221 127.107 132.705 126.589 134.045 125.964C135.493 125.286 136.959 124.572 138.478 124.072C139.926 123.608 141.445 123.287 142.947 123.09C144.538 122.894 145.735 121.466 145.574 119.627C145.467 118.234 144.001 116.931 142.607 117.217C139.89 117.77 137.227 118.484 134.528 119.127C133.581 119.359 132.562 119.413 131.704 119.823C130.506 120.377 129.255 121.019 128.308 121.912C125.591 124.5 122.141 125.982 119.174 128.178C117.244 129.606 115.224 130.749 112.936 131.356C111.524 131.713 110.183 132.266 108.575 131.802C107.341 131.445 105.929 131.731 104.589 131.731C102.158 131.731 99.4409 132.373 97.725 130.142C96.5453 128.624 94.3288 127.821 94.2395 125.482C94.2395 125.161 93.9534 124.822 93.7389 124.536C92.9525 123.572 92.5056 122.626 92.4877 121.251C92.4698 119.716 91.7728 118.181 91.4511 116.985C93.2028 115.592 94.8293 114.217 96.5631 112.968C98.1897 111.807 99.8341 110.647 101.604 109.736C102.891 109.076 103.32 108.04 103.248 106.844C103.177 105.505 102.908 104.256 101.228 103.684C99.4408 103.095 97.993 103.399 96.2235 103.899C93.7032 104.595 92.0945 106.327 90.0568 107.951C89.6815 106.755 89.1989 105.737 89.0917 104.684C88.8593 102.56 88.0191 100.685 86.6786 99.1855C85.767 98.1858 84.4085 97.4716 83.1037 97.0253C82.5496 96.8468 81.3878 97.5252 80.9767 98.15C80.2438 99.2033 79.5289 100.471 79.3859 101.721C78.9927 104.898 80.7801 107.63 81.5666 110.593C82.0492 112.396 82.9251 113.86 83.7473 115.431C83.9618 115.842 83.9438 116.681 83.6578 117.002C82.4424 118.431 81.2448 119.912 79.7791 121.073C77.6342 122.769 75.0782 123.001 72.4507 122.412C71.0923 122.108 69.7338 121.805 68.4111 121.394C67.7319 121.18 66.9633 120.894 66.5164 120.394C65.3546 119.109 64.3357 117.663 63.2454 116.288C62.8879 115.842 62.4947 115.414 62.3159 115.217C62.3874 113.111 62.7807 111.04 62.3875 109.165C62.0657 107.701 61.9406 106.237 61.6904 104.791C61.315 102.72 60.6715 100.614 59.6706 98.7749C58.7947 97.1681 57.2397 95.9363 56.0064 94.5081C55.7382 94.2046 55.5058 93.8297 55.3092 93.4727C54.4155 91.7767 52.9856 90.8483 51.1624 91.1697C50.4474 91.2946 49.4286 91.8481 49.2498 92.4193C48.9817 93.2941 49.0175 94.5617 49.5001 95.2758C51.0909 97.6145 52.7532 99.9353 54.7372 101.935C55.9169 103.113 54.63 104.059 55.1126 105.184C55.7025 106.541 55.5595 108.201 55.7561 109.719C56.0599 112.129 55.6488 114.414 54.1831 116.378C52.9677 118.002 51.8595 119.93 50.2151 120.948C48.4455 122.055 47.0155 123.59 44.8885 124.393C42.3682 125.34 39.9731 125.304 37.4707 125.304C34.8432 125.304 32.8234 127.768 33.8601 129.749C34.6466 131.231 36.1481 131.659 37.6138 131.963C41.135 132.713 44.549 132.016 47.7663 130.624C49.1963 129.999 50.4296 128.928 51.7523 128.071C51.8416 128.017 51.8952 127.875 51.9667 127.857C55.4701 127.535 56.2923 123.858 58.6875 122.68L58.7411 122.751Z" fill="#75391C"/>
<path d="M117.906 94.5438C117.226 97.2574 117.566 98.1679 119.854 99.0783C120.551 99.3461 121.677 99.4175 122.195 99.0426C123.572 98.0072 125.538 97.5609 125.913 95.4185C125.985 95.0258 126.682 94.633 127.164 94.4188C128.433 93.8654 129.702 93.1334 131.043 92.9906C132.33 92.8478 133.885 93.0441 134.975 93.6868C136.477 94.5795 137.531 96.2219 139.015 97.1681C141.5 98.7213 141.803 101.274 142.715 103.631C143.233 105.005 144.449 105.916 145.95 106.237C147.148 106.505 148.846 104.434 148.614 103.095C148.006 99.5604 146.898 96.329 144.056 93.8297C143.037 92.937 142.661 91.3124 141.643 90.4377C140.248 89.2415 138.586 88.2953 136.888 87.5455C135.78 87.0635 134.421 87.1885 133.206 86.9028C131.454 86.4744 129.81 86.1709 128.112 87.2956C127.45 87.7241 126.432 87.5991 125.574 87.6884C123.018 87.974 121.588 89.795 120.176 91.6338C120.05 91.7944 119.961 92.0087 119.818 92.1158C118.317 93.062 118.317 93.0441 117.923 94.5795L117.906 94.5438Z" fill="#75391C"/>
<path d="M64.086 67.5328C62.2807 67.2829 60.3861 66.908 58.4914 66.783C57.6692 66.7294 56.8111 67.2115 55.971 67.4257C55.1488 67.6399 54.2194 68.1577 53.5044 67.9434C51.9493 67.515 51.0556 68.3183 50.1619 69.2109C49.2682 70.1036 48.4817 71.1212 47.6059 72.0317C47.0875 72.5672 46.5334 73.085 45.9436 73.5313C43.8166 75.138 43.3875 78.5122 45.1213 80.1546C47.0875 82.0113 50.3586 81.1901 51.4668 78.7799C52.1639 77.2625 53.0218 75.4237 54.3266 74.6917C56.1319 73.692 58.4734 73.085 60.529 73.2278C64.4077 73.4956 66.7135 76.352 68.8048 79.3869C69.6627 80.6366 69.9667 82.3862 71.6826 83.0467C72.8266 83.4752 74.0956 83.1181 74.6676 81.9934C75.9724 79.4584 75.3825 78.1908 73.9705 75.6915C72.755 73.5134 71.1284 71.9781 69.2695 70.5856C67.7323 69.443 65.9449 68.604 64.1038 67.5328H64.086Z" fill="#75391C"/>
<path d="M143.34 73.3884C142.75 73.0314 142.196 72.5672 141.553 72.3173C140.731 71.9959 139.855 71.7817 138.979 71.6389C138.103 71.4782 137.192 71.3889 136.298 71.4068C133.581 71.4604 130.864 71.5674 128.165 71.6924C126.968 71.746 125.895 73.3349 125.949 74.8523C126.002 76.1199 127.45 77.7445 128.523 77.7266C130.328 77.7266 132.133 77.6552 133.938 77.6909C134.689 77.6909 135.422 77.9051 136.173 78.0301C137.907 78.3336 139.623 78.6728 141.338 78.9584C143.233 79.2798 144.913 79.9582 146.308 81.3328C146.701 81.7256 147.309 81.8684 147.773 82.1898C148.22 82.4933 148.613 82.8503 149.006 83.2252C149.132 83.3502 149.114 83.6894 149.239 83.7429C151.616 84.7427 152.42 86.9921 153.511 89.0452C153.993 89.9556 155.995 90.1342 157.121 89.5093C158.391 88.7952 159.213 87.0992 158.641 86.153C157.336 84.0107 156.013 81.8863 154.601 79.8154C153.135 77.673 150.991 76.2627 148.774 75.0309C147.148 74.1204 145.307 73.6027 143.555 72.9064C143.483 73.0671 143.412 73.2278 143.34 73.3884Z" fill="#75391C"/>
<path d="M69.9306 54.0362C68.9833 53.5542 68.036 53.0721 67.0887 52.608C66.9099 52.5187 66.6775 52.3938 66.4988 52.4295C62.3341 52.9829 58.08 53.2328 54.0226 54.2504C52.253 54.6968 50.537 55.7143 48.6245 56.1249C46.8192 56.5177 45.568 60.0882 46.8192 61.3201C47.6771 62.1591 49.1428 62.5519 50.394 62.7661C51.2163 62.9089 52.1994 62.4983 53.0216 62.1234C54.6839 61.3379 56.2747 60.3917 57.9191 59.5705C58.3124 59.3741 58.8129 59.3027 59.2776 59.267C60.9757 59.1778 62.7809 58.7314 64.3538 59.1778C66.5345 59.7847 68.9654 59.2849 70.9495 61.0166C71.8074 61.7664 73.6485 61.9806 74.8104 61.6236C76.0258 61.2486 77.4379 60.2489 77.277 58.4815C77.2234 57.9102 77.1162 57.0354 76.7229 56.8212C74.6138 55.6072 72.3973 54.5361 70.2167 53.4114C70.1094 53.6077 70.02 53.8041 69.9127 54.0184L69.9306 54.0362Z" fill="#75391C"/>
</svg>
