<svg width="215" height="45" viewBox="0 0 215 45" fill="none" xmlns="http://www.w3.org/2000/svg">
<path d="M112.653 11.7342C112.746 11.8452 112.82 11.9932 112.95 12.0672C113.246 12.2707 113.579 12.4187 113.876 12.6407C114.098 12.8072 114.302 13.0292 114.505 13.2142C114.543 13.2512 114.561 13.3067 114.617 13.3252C115.32 13.6212 115.598 14.3058 115.987 14.8608C116.524 15.6564 117.006 16.5074 117.376 17.3954C117.636 17.9874 117.821 18.635 117.728 19.301C117.654 19.745 117.784 20.1335 117.784 20.5405C117.784 21.1696 117.636 21.8171 117.488 22.4276C117.358 22.9272 117.45 23.5007 117.821 23.8337C118.006 24.0002 118.21 24.1667 118.395 24.3517C118.654 24.6107 118.562 24.9437 118.599 25.2397C118.636 25.4803 118.673 25.7208 118.71 25.9613C118.766 26.3313 118.821 26.7013 118.877 27.0898C118.951 27.6634 118.988 28.2184 118.914 28.8104C118.858 29.2174 118.951 29.643 118.932 30.05C118.932 30.272 118.858 30.494 118.803 30.716C118.71 31.0675 118.562 31.382 118.673 31.7891C118.729 31.9926 118.488 32.307 118.358 32.5661C118.303 32.6771 118.191 32.7696 118.117 32.8991C117.839 33.4726 117.506 34.0461 117.339 34.6567C117.21 35.1747 116.821 35.4707 116.543 35.8592C116.339 36.1737 116.154 36.4883 115.987 36.8213C115.839 37.0988 115.746 37.3393 115.339 37.3948C114.894 37.4503 114.635 37.8758 114.487 38.2828C114.376 38.5973 114.153 38.7638 113.894 38.9303C113.561 39.1524 113.283 39.4669 112.95 39.7444C112.783 39.8739 112.598 39.9849 112.431 40.0959C112.172 40.2624 111.931 40.4474 111.69 40.6324C111.468 40.7805 111.227 40.9284 111.005 41.0764C110.708 41.28 110.412 41.5205 110.097 41.687C109.653 41.9275 109.152 42.057 108.745 42.316C108.189 42.6675 107.467 42.538 106.985 43.0375C106.911 43.1115 106.763 43.13 106.652 43.167C105.818 43.3706 104.966 43.574 104.133 43.7775C104.022 43.7961 103.929 43.8886 103.818 43.9256C103.67 43.9811 103.503 44.0921 103.373 44.0736C102.707 43.9996 102.095 44.2031 101.447 44.3326C101.392 44.3326 101.318 44.2956 101.243 44.3141C101.021 44.3511 100.799 44.4066 100.577 44.4436C100.502 44.4436 100.428 44.5361 100.373 44.5176C99.8542 44.3511 99.28 44.7026 98.7614 44.3326C98.6873 44.2771 98.5577 44.2771 98.4651 44.3141C97.7983 44.5361 97.1314 44.3141 96.4646 44.3141C96.1312 44.3141 95.8164 44.1846 95.4644 44.3511C95.3348 44.4251 95.1125 44.2586 94.9273 44.2401C94.668 44.2031 94.4087 44.1846 94.1308 44.1476C94.0012 44.1476 93.8715 44.1291 93.7604 44.0736C93.501 43.9626 93.2603 43.8886 92.9824 43.9811C92.8343 44.0181 92.649 43.9441 92.4823 43.9256C92.0007 43.8516 91.5192 43.8146 91.0561 43.722C90.6671 43.648 90.2781 43.5371 89.8892 43.4445C89.6669 43.4075 89.4447 43.4446 89.2224 43.389C88.9446 43.3335 88.6667 43.241 88.3889 43.1485C88.1481 43.056 87.9258 42.9635 87.685 42.8525C87.6294 42.834 87.5554 42.834 87.5183 42.797C86.9812 42.353 86.2773 42.4455 85.6846 42.242C85.4438 42.1495 85.2215 41.9645 84.9808 41.9275C84.6659 41.8535 84.388 41.7055 84.1102 41.5759C83.3878 41.2429 82.8507 40.6694 82.1839 40.2809C82.1283 40.2439 82.0912 40.2069 82.0542 40.1514C81.5356 39.3744 80.7761 38.8379 80.0908 38.2088C79.6833 37.8388 79.3684 37.3948 78.998 37.0063C78.9239 36.9138 78.7943 36.8583 78.7202 36.7658C78.6276 36.6733 78.5349 36.5808 78.4794 36.4698C78.3868 36.2292 78.3312 36.0072 78.0163 35.9702C77.9607 35.9702 77.9052 35.8407 77.8682 35.7667C77.72 35.4892 77.5532 35.2302 77.4236 34.9527C77.3125 34.7492 77.2198 34.5271 77.1272 34.3051C76.8679 33.6946 76.6086 33.0656 76.3493 32.4366C76.127 31.9001 75.8122 31.3635 75.664 30.8085C75.5714 30.4755 75.5158 30.161 75.3306 29.865C75.275 29.7724 75.2935 29.606 75.2935 29.4765C75.2935 29.4209 75.3491 29.3469 75.3306 29.3284C74.9602 28.9214 75.2379 28.3849 75.0527 27.9224C74.8305 27.3489 74.7194 26.7383 74.5712 26.1463C74.5712 26.1093 74.5712 26.0538 74.5526 26.0353C74.034 25.6468 74.3674 25.2397 74.4785 24.8142C74.5156 24.6662 74.46 24.4997 74.4415 24.3332C74.4415 23.6857 74.3859 23.0382 74.4415 22.4091C74.4786 21.8911 74.5156 21.3176 74.7564 20.892C75.0342 20.3925 74.849 19.856 75.0342 19.375C75.0528 19.3195 75.0342 19.227 75.0713 19.19C75.4788 18.931 75.3491 18.4869 75.4417 18.1169C75.5529 17.7099 75.701 17.2844 75.9418 16.9514C76.1826 16.6183 76.3863 16.3594 76.2196 15.9338C76.1641 15.7858 76.2197 15.5453 76.3123 15.3973C76.5531 15.0458 76.2567 14.8423 76.1271 14.6018C75.9974 14.3613 75.738 14.1577 75.6269 13.8987C75.4046 13.3807 75.1454 12.8627 75.1454 12.2337C75.1454 11.8267 74.9046 11.4196 74.7749 11.0126C74.7564 10.9571 74.7749 10.8831 74.7564 10.8091C74.7193 10.5131 74.7008 10.2171 74.6452 9.92107C74.6082 9.73606 74.5897 9.60658 74.7193 9.42157C74.8305 9.27356 74.8119 8.99604 74.8305 8.77403C74.886 8.36701 74.9231 7.95999 74.9972 7.55297C75.0342 7.29396 75.1083 7.01642 75.2194 6.77591C75.4232 6.31339 75.664 5.86941 75.8863 5.42539C76.053 5.12937 76.2011 4.81484 76.4049 4.53733C76.5716 4.31532 76.7753 4.14881 76.9791 3.96381C77.2199 3.7418 77.4607 3.51977 77.7385 3.31627C78.2756 2.92775 78.7758 2.46522 79.3685 2.20621C80.1279 1.89169 80.9799 1.7807 81.7578 1.52168C82.2209 1.35518 82.684 1.41067 83.11 1.28116C83.5175 1.17016 83.8323 1.28118 84.2028 1.35518C84.4436 1.41069 84.7029 1.33668 84.9622 1.35518C85.166 1.35518 85.3883 1.3552 85.5735 1.4292C85.9625 1.59571 86.3514 1.74374 86.7774 1.85474C87.1479 1.94725 87.4627 2.29873 87.7961 2.52074C87.9628 2.63175 88.1666 2.72426 88.2963 2.87226C88.5556 3.13128 88.8334 3.40877 89.0372 3.72329C89.3335 4.16731 89.5558 4.64834 89.8151 5.12937C89.9633 5.38838 90.1856 5.22187 90.3708 5.24037C90.593 5.24037 90.8153 5.24039 91.019 5.20339C91.1857 5.18488 91.3524 5.12935 91.4821 5.05535C91.797 4.85184 92.0933 4.66682 92.5008 4.81483C92.612 4.85183 92.7602 4.75937 92.9083 4.74087C93.5566 4.64836 94.1864 4.53735 94.8347 4.44485C95.5385 4.35234 96.2424 4.20431 96.9647 4.18581C97.5019 4.18581 98.0575 4.14883 98.5576 4.38935C98.6317 4.42635 98.7244 4.42633 98.7984 4.42633C99.0948 4.37082 99.3912 4.4263 99.669 4.51881C100.132 4.72232 100.725 4.35235 100.873 3.87132C100.929 3.63081 101.132 3.44581 101.299 3.2423C101.466 3.02029 101.706 2.83527 101.799 2.59476C101.929 2.28025 102.058 2.00271 102.373 1.8177C102.577 1.7067 102.688 1.44767 102.873 1.33666C103.17 1.17016 103.485 1.07771 103.8 0.929701C104.04 0.818696 104.263 0.689147 104.485 0.596643C104.707 0.504139 104.929 0.430127 105.17 0.356123C105.207 0.356123 105.281 0.356162 105.318 0.337661C105.781 -0.14336 106.337 0.0416207 106.893 0.0786223C107.3 0.115624 107.726 0.0231605 108.152 0.00465968C108.245 0.00465968 108.356 -0.0138795 108.43 0.0231221C109.004 0.43014 109.727 0.411633 110.356 0.652143C110.56 0.726147 110.782 0.800157 110.949 0.948163C111.357 1.28118 111.857 1.42922 112.153 1.96574C112.468 2.52077 113.005 2.92778 113.45 3.4088C113.505 3.46431 113.579 3.53828 113.598 3.61229C113.765 4.09331 113.876 4.59281 114.098 5.03683C114.302 5.48085 114.376 5.88789 114.283 6.38741C114.246 6.57242 114.45 6.79446 114.468 6.99797C114.468 7.47899 114.524 7.99701 114.376 8.44103C114.191 9.07006 113.857 9.66209 113.561 10.2356C113.301 10.7351 112.987 11.1976 112.727 11.6602L112.653 11.7342ZM108.782 22.9271C108.115 23.0937 107.022 23.0011 106.244 22.7976C105.837 22.6866 105.522 22.4831 105.189 22.2426C104.763 21.9281 104.3 21.6321 103.874 21.2991C103.725 21.1881 103.577 21.0401 103.522 20.8736C103.299 20.2816 102.947 19.8005 102.41 19.4675C102.355 19.4305 102.318 19.301 102.299 19.227C102.244 18.746 102.207 18.2649 102.188 17.7839C102.151 17.1549 102.04 16.5259 102.17 15.9338C102.336 15.1938 102.707 14.4908 102.985 13.7877C103.077 13.5657 103.207 13.3622 103.225 13.1402C103.336 12.4187 103.911 12.1782 104.448 11.8822C105.003 11.5861 105.596 11.4011 106.152 11.0866C106.485 10.9016 106.782 10.6981 107.189 10.8646C107.245 10.8831 107.337 10.8091 107.411 10.7906C107.578 10.7351 107.763 10.6981 107.93 10.6611C108.097 10.6241 108.282 10.6241 108.43 10.6056C108.245 10.2911 108.078 10.0136 107.911 9.75457C107.893 9.71757 107.856 9.66207 107.819 9.64357C107.393 9.32906 106.985 9.03304 106.559 8.71853C106.448 8.62603 106.3 8.55202 106.207 8.42251C105.911 8.03399 105.522 7.90449 105.059 7.84899C104.874 7.83049 104.67 7.70099 104.522 7.57149C104.281 7.33098 104.04 7.21993 103.707 7.18293C103.503 7.16443 103.207 7.18297 103.114 7.05347C102.744 6.59095 102.17 6.86844 101.706 6.62793C101.188 6.35042 100.521 6.36893 99.9098 6.23943C99.5208 6.16542 99.1504 5.98041 98.7799 5.99891C98.428 5.99891 98.0761 6.23942 97.7612 5.88791C97.7612 5.88791 97.6871 5.90641 97.6501 5.88791C97.1129 5.85091 96.5943 5.85086 96.0571 5.96187C95.4459 6.07287 94.7976 6.01742 94.1864 6.12843C93.2232 6.29493 92.2785 6.55394 91.3154 6.75745C90.9079 6.84995 90.4634 6.81296 90.0744 6.94247C89.352 7.18298 88.6111 7.42345 87.9628 7.83047C87.3516 8.20049 86.4996 8.16348 86.055 8.86651C86.0365 8.90351 85.9624 8.90351 85.9254 8.92201C85.7216 8.99602 85.5364 9.07001 85.3327 9.14401C84.8326 9.32902 84.4991 9.84707 83.9064 9.92107C83.7582 9.93957 83.3323 10.1061 83.2952 10.5316C83.2952 10.7166 82.9247 10.9386 82.6839 10.9941C82.3691 11.0681 82.2394 11.2716 82.0727 11.4937C81.9986 11.5862 81.9431 11.7157 81.8505 11.7712C81.4985 11.9747 81.1281 12.1597 80.9614 12.5852C80.9243 12.6777 80.8317 12.7702 80.7391 12.8442C80.4057 13.1772 80.0353 13.4732 79.7204 13.8247C79.5722 13.9912 79.5351 14.2688 79.387 14.4538C79.1276 14.7868 78.8313 15.0828 78.5535 15.3788C78.3868 15.5638 78.2756 15.7488 78.2941 16.0263C78.2941 16.1558 78.2201 16.3039 78.146 16.3964C78.0163 16.5444 77.8126 16.6369 77.7199 16.8034C77.5347 17.1734 77.4236 17.5804 77.2199 17.9319C76.8494 18.5794 76.9976 19.375 76.6271 20.0225C76.6271 20.0595 76.6271 20.0965 76.6271 20.1335C76.5716 20.374 76.516 20.6146 76.4604 20.8551C76.3864 21.1326 76.2752 21.4101 76.2196 21.7061C76.1456 22.0946 76.1455 22.4831 76.09 22.8716C76.0344 23.2232 75.9974 23.5562 76.0529 23.9077C76.127 24.3702 76.0529 24.8327 76.0529 25.3138C76.0529 25.3693 76.0529 25.4248 76.0529 25.4803C76.2196 25.8688 76.127 26.3683 76.5716 26.6458C76.5901 26.6458 76.5716 26.7568 76.5716 26.8123C76.5716 27.1083 76.5715 27.4228 76.6086 27.7189C76.6271 27.9779 76.7012 28.2184 76.7568 28.4774C76.7939 28.6624 76.7938 28.8659 76.8679 29.0509C76.9605 29.2914 77.1828 29.5134 77.1828 29.7354C77.1643 30.346 77.4792 30.827 77.6829 31.345C77.9052 31.863 78.1645 32.3441 78.4053 32.8436C78.6461 33.3246 78.7202 33.8982 79.2203 34.2312C79.2943 34.2682 79.2758 34.4162 79.3314 34.4902C79.5537 34.9712 79.6833 35.5077 80.2205 35.8037C80.4057 35.8962 80.4983 36.1552 80.6465 36.3217C80.7762 36.4697 80.9058 36.6178 81.054 36.7658C81.1837 36.9138 81.3318 37.0433 81.48 37.1728C81.6467 37.3208 81.8134 37.4873 81.9801 37.6168C82.1468 37.7463 82.3321 37.8388 82.4988 37.9868C82.7396 38.1903 82.9618 38.4123 83.1841 38.6343C83.2396 38.6898 83.2767 38.7638 83.3322 38.8193C83.4434 38.9303 83.5545 39.0414 83.6657 39.1339C83.7583 39.2079 83.925 39.2079 83.9805 39.3004C84.388 39.8924 85.0919 39.8924 85.6661 40.1884C86.055 40.3919 86.5181 40.3919 86.87 40.7249C86.9256 40.7804 87.0552 40.8174 87.1478 40.8359C87.6665 40.8914 88.074 41.3355 88.6482 41.2245C88.7408 41.2245 88.8704 41.2799 88.9445 41.3539C89.1483 41.539 89.3891 41.613 89.6484 41.502C89.7039 41.4835 89.7965 41.502 89.8706 41.539C90.1114 41.6315 90.3523 41.761 90.6116 41.8165C91.2599 41.9275 91.9266 41.9275 92.5564 42.168C92.7972 42.2605 93.1121 42.168 93.3899 42.168C93.89 42.205 94.4827 42.1495 94.8717 42.3715C95.3718 42.649 95.8349 42.5195 96.2979 42.4825C96.6128 42.464 96.8721 42.427 97.0573 42.6675C97.2426 42.6305 97.4093 42.575 97.576 42.5565C97.8538 42.538 98.1317 42.575 98.4095 42.538C98.7614 42.4825 99.0948 42.4085 99.4282 42.612C99.5023 42.649 99.5949 42.6305 99.6875 42.612C100.336 42.5565 101.003 42.501 101.651 42.464C101.892 42.464 102.114 42.427 102.281 42.2235C102.373 42.1125 102.559 42.0385 102.707 42.02C103.411 41.946 104.133 41.9645 104.818 41.835C105.467 41.687 106.115 41.428 106.726 41.1319C107.263 40.8914 107.745 40.5769 108.337 40.4844C108.671 40.4289 109.041 40.3364 109.319 40.1699C109.893 39.7999 110.431 39.3744 110.986 38.9858C111.116 38.8933 111.301 38.8563 111.412 38.7453C111.894 38.3013 112.375 37.8573 112.838 37.3948C113.024 37.2098 113.283 37.0248 113.357 36.8028C113.45 36.4697 113.709 36.4327 113.931 36.2847C114.172 36.1182 114.376 35.8962 114.561 35.6742C114.691 35.5077 114.765 35.3042 114.876 35.1192C115.246 34.5272 115.765 34.0277 115.95 33.3061C116.08 32.7696 116.432 32.3071 116.58 31.7705C116.747 31.16 117.062 30.5865 117.043 29.9019C117.024 29.3654 117.136 28.8104 117.191 28.2739C117.21 28.0334 117.228 27.7743 117.191 27.5338C117.136 26.9973 117.043 26.4793 116.95 25.9428C116.913 25.7023 116.821 25.4802 116.71 25.2767C116.598 25.0732 116.413 24.9252 116.247 24.7217C116.006 24.8142 115.246 24.7218 115.135 24.5182C114.95 24.2037 114.672 24.1667 114.357 24.1297C113.987 24.0742 113.598 24.0557 113.283 23.9077C112.875 23.7227 112.468 23.6857 112.042 23.6857C111.727 23.6857 111.394 23.8892 111.153 23.8152C110.505 23.6302 110.153 24.0557 109.708 24.3332C109.56 24.4257 109.467 24.6292 109.356 24.7772C109.264 24.8882 109.19 24.9993 109.134 25.0918C109.041 25.3693 108.949 25.6098 108.893 25.8688C108.838 26.0723 108.764 26.2758 108.764 26.4793C108.745 26.7753 108.782 27.0898 108.745 27.3673C108.689 27.6818 108.486 27.9224 108.634 28.3109C108.801 28.7734 108.782 29.3099 108.838 29.8095C108.838 29.865 108.912 29.939 108.967 29.976C109.189 30.1795 109.523 30.3645 109.616 30.6235C109.801 31.1045 110.264 31.234 110.579 31.345C111.079 31.53 111.579 31.715 112.042 31.9556C112.468 32.1776 112.635 32.7326 112.375 33.0471C112.172 33.2876 111.709 33.3431 111.394 33.2136C111.06 33.0656 110.727 32.9176 110.356 32.8806C109.634 32.8436 109.264 32.196 108.708 31.863C108.319 31.641 108.06 31.234 107.726 30.9195C107.523 30.7345 107.43 30.5125 107.448 30.235C107.448 30.124 107.411 29.9944 107.393 29.8464C107.171 30.0129 107.022 30.1425 106.837 30.2535C106.374 30.5125 105.93 30.7715 105.448 30.9565C105.115 31.086 104.707 31.0675 104.374 31.2155C104.096 31.345 103.855 31.308 103.596 31.2895C103.485 31.2895 103.373 31.2895 103.244 31.2895C102.596 31.2895 102.003 30.9935 101.41 30.7715C101.28 30.716 101.225 30.5495 101.114 30.4385C100.78 30.087 100.428 29.7539 100.058 29.3839C100.058 29.4024 99.9839 29.5135 99.9098 29.606C99.6505 29.865 99.4652 30.235 99.0207 30.272C98.891 30.272 98.7614 30.383 98.6132 30.4385C98.2242 30.5865 97.8168 30.753 97.4093 30.8455C96.8906 30.975 96.372 30.9195 95.8534 30.7345C95.4274 30.5865 94.9829 30.4755 94.5383 30.346C94.4827 30.5865 94.4642 30.9195 94.3345 31.197C94.1308 31.6225 93.8715 32.0296 93.6122 32.4366C93.3899 32.7696 93.2603 33.1396 92.8528 33.3431C92.5564 33.4911 92.26 33.7316 92.1304 33.9907C91.9637 34.3237 91.7044 34.4716 91.408 34.5826C91.2784 34.6381 91.0561 34.6382 91.0005 34.7307C90.7783 35.1377 90.3893 35.1562 90.0188 35.2487C89.5002 35.3782 88.8334 34.8972 88.9445 34.3977C89.0001 34.1572 89.2224 33.8981 89.4447 33.7501C89.8522 33.4911 90.3152 33.3061 90.7412 33.0841C90.7968 33.0471 90.8524 32.9916 90.8894 32.9361C91.1487 32.6586 91.3895 32.3256 91.7044 32.1406C92.0378 31.9556 92.2786 31.715 92.4267 31.382C92.5934 31.0305 92.7416 30.679 92.8713 30.3275C92.9453 30.1055 92.9824 29.8835 92.9824 29.643C92.9824 29.4394 92.9454 29.2174 92.9269 29.0139C92.8713 28.5329 92.9269 27.9964 92.7416 27.5709C92.4638 26.9603 92.0748 26.3683 91.6488 25.8503C91.371 25.4987 90.9264 25.2768 90.556 25.0177C90.4633 24.9437 90.3893 24.8327 90.2781 24.8327C89.6484 24.7587 89.0001 24.6107 88.3889 24.6847C87.8702 24.7402 87.3331 24.9252 86.87 25.3322C86.6107 25.5727 86.2032 25.7023 85.8513 25.8318C85.2215 26.0723 84.5732 26.2943 83.962 26.5718C83.1655 26.9418 82.332 27.1453 81.4244 26.7013C80.8688 26.4238 80.2946 26.2573 79.9982 25.6468C79.9056 25.4618 79.7389 25.2953 79.6278 25.1287C79.4425 24.8327 79.2944 24.5552 79.3129 24.1667C79.3129 23.7967 79.1647 23.4082 79.1091 23.0381C79.035 22.6681 78.961 22.2796 78.9054 21.9096C78.9054 21.8356 78.9054 21.7431 78.9424 21.6506C79.1091 20.9846 79.2573 20.3185 79.424 19.634C79.4796 19.3935 79.4796 19.116 79.5722 18.894C79.7389 18.524 80.0353 18.2465 80.1279 17.8024C80.202 17.4694 80.4983 17.1919 80.7206 16.9144C81.1651 16.3779 81.6467 15.8784 82.0727 15.3233C82.4432 14.8423 82.8692 14.4908 83.3878 14.1948C83.4989 14.1393 83.5915 13.9913 83.6101 13.8803C83.6471 13.5658 83.8879 13.5103 84.1102 13.4178C84.2769 13.3438 84.4251 13.2512 84.5733 13.1587C84.814 13.0107 85.0548 12.8257 85.2956 12.6962C85.4438 12.6222 85.6476 12.6222 85.7957 12.5482C86.0551 12.4372 86.3143 12.2707 86.5737 12.1597C86.7774 12.0672 87.0367 12.0486 87.1664 11.9191C87.7035 11.3826 88.4444 11.5861 89.0742 11.3456C89.6299 11.1421 90.3152 11.2717 90.945 11.2717C91.1672 11.2717 91.4636 11.4381 91.6117 11.3456C92.0007 11.1236 92.2786 11.2346 92.5934 11.4566C92.6675 11.5121 92.7601 11.5677 92.8342 11.5492C93.4084 11.4381 93.89 11.7526 94.3901 11.9377C94.705 12.0487 95.0755 12.1041 95.2977 12.3262C95.8349 12.8257 96.6128 13.0847 96.9462 13.8063C97.224 14.3983 98.002 14.7128 97.8723 15.5083C97.8723 15.5453 97.9464 15.5823 97.9464 15.6378C98.1317 16.2113 98.6132 16.7479 98.2243 17.4324C98.2243 17.4324 98.2243 17.4879 98.2243 17.5064C98.2428 18.0429 98.2613 18.5609 98.2798 19.0975C98.2798 19.2085 98.2057 19.301 98.1502 19.412C98.0205 19.634 97.8908 19.856 97.7427 20.078C97.5574 20.3555 97.3352 20.5961 97.15 20.8736C97.0388 21.0401 96.9462 21.2251 96.8165 21.3731C96.6498 21.5766 96.4831 21.7801 96.2979 21.9836C96.1497 22.1501 96.0016 22.3166 95.8534 22.4831C95.6126 22.7237 95.4644 23.0751 95.0569 23.1491C94.8902 23.1861 94.7235 23.2972 94.5568 23.3527C94.4642 23.3897 94.353 23.4082 94.2604 23.4452C94.1123 23.4822 93.9456 23.5192 93.7974 23.5747C93.5195 23.6857 93.2417 23.8337 92.9454 23.8892C92.5749 23.9632 92.186 23.9817 91.797 24.0187C91.797 24.0557 91.797 24.1112 91.797 24.1482C92.0007 24.2777 92.223 24.3702 92.4267 24.5182C92.612 24.6663 92.7972 24.8327 92.9454 25.0177C93.1862 25.3508 93.3899 25.7023 93.5937 26.0538C93.853 26.4978 94.3345 26.8493 94.279 27.4414C94.2419 27.9039 94.5568 28.2184 94.742 28.5884C94.8346 28.7549 95.1495 28.7919 95.2792 28.9399C95.557 29.3099 95.9645 29.3654 96.372 29.4394C96.8906 29.5319 97.3722 29.4394 97.7982 29.0879C97.9094 28.9954 98.039 28.9029 98.1502 28.8844C98.6873 28.8289 98.6873 28.8289 98.7429 28.3109C98.7429 28.2554 98.7799 28.1814 98.7984 28.1259C99.0392 27.5153 98.7984 26.9233 98.2798 26.4978C98.002 26.2758 97.613 26.0168 97.6315 25.5543C97.6315 25.1473 97.6315 24.7217 97.7056 24.3332C97.7612 24.1297 98.039 23.8152 98.2057 23.8337C98.5947 23.8337 99.0022 23.9447 99.3356 24.1482C99.7061 24.3702 100.002 24.7033 100.317 24.9808C100.521 24.8328 100.762 24.6847 100.947 24.4812C101.132 24.2962 101.262 24.0372 101.447 23.8337C101.929 23.2601 102.503 23.3342 102.836 24.0187C102.984 24.3147 102.966 24.6292 103.003 24.9252C103.077 25.4802 102.781 25.8688 102.466 26.1648C101.855 26.7568 101.651 27.4044 101.91 28.1999C101.947 28.3479 101.984 28.4959 101.984 28.6254C101.966 29.1064 102.244 29.3099 102.633 29.5134C103.077 29.7354 103.522 29.5504 103.948 29.6244C104.263 29.6799 104.54 29.6244 104.818 29.4394C105.096 29.2729 105.429 29.1434 105.726 28.9954C106.115 28.7919 106.485 28.6069 106.856 28.3849C106.911 28.3479 106.967 28.2184 106.948 28.1629C106.689 27.4783 107.078 26.8308 107.115 26.1833C107.115 26.0723 107.078 25.9428 107.115 25.8318C107.245 25.4063 107.411 24.9993 107.522 24.5737C107.708 23.9447 108.004 23.2787 108.671 22.9457L108.782 22.9271ZM95.8164 18.0799C95.7978 17.5249 95.3348 16.8589 94.8902 16.7109C94.2975 16.5259 93.7604 16.0818 93.075 16.3409C93.0009 16.3594 92.9083 16.3223 92.8157 16.3223C92.4638 16.3223 92.1119 16.3224 91.76 16.3594C91.5192 16.3964 91.2598 16.4519 91.0561 16.5814C90.4449 16.9884 89.8521 17.4509 89.2409 17.8579C88.889 18.0984 88.6667 18.3944 88.6297 18.82C88.6111 19.0975 88.8705 19.597 89.1483 19.597C89.4076 19.597 89.8336 19.5045 89.9262 19.3195C90.2226 18.6904 90.8894 18.5425 91.3525 18.154C91.5192 18.0245 91.8711 18.0984 92.0378 17.9504C92.4638 17.6174 92.9639 17.7099 93.3714 17.7839C93.89 17.8764 94.4457 18.0059 94.9087 18.3944C95.0384 18.5054 95.4088 18.3945 95.6496 18.3205C95.7422 18.302 95.7793 18.0984 95.7978 18.0614L95.8164 18.0799ZM104.966 17.4879C104.966 17.4879 104.948 17.5989 104.966 17.6359C105.096 17.8394 105.189 18.0615 105.374 18.2095C105.559 18.376 105.763 18.2649 105.967 18.1169C106.189 17.9504 106.467 17.8209 106.745 17.7284C107.078 17.6174 107.43 17.5064 107.782 17.4879C108.115 17.4879 108.486 17.5064 108.782 17.6544C109.227 17.8949 109.597 18.2279 109.986 18.5425C110.116 18.635 110.208 18.7645 110.338 18.8755C110.523 19.0235 110.69 19.19 110.894 19.264C111.245 19.375 111.801 18.8385 111.69 18.5055C111.597 18.228 111.486 17.9874 111.375 17.7099C111.19 17.2104 110.579 17.2474 110.282 16.8774C110.282 16.8774 110.208 16.9144 110.19 16.9144C110.116 16.8959 110.004 16.8774 109.967 16.8219C109.578 16.2114 108.986 16.1003 108.337 16.0448C107.986 16.0263 107.671 16.1004 107.337 16.1189C106.985 16.1374 106.633 16.1929 106.319 16.3039C106.059 16.3964 105.8 16.5444 105.541 16.6369C105.17 16.7849 104.985 17.0624 104.966 17.4694V17.4879Z" fill="#75391C"/>
<path d="M17.8 12.2337H3.16731V22.3166H14.503V25.2582H3.16731V35.4707H17.8V38.4123H0V9.25505H17.8V12.1967V12.2337Z" fill="#75391C"/>
<path d="M28.8209 38.8748C22.8752 38.8748 18.8002 36.1367 18.8002 29.5134H21.9676C21.9676 34.4346 24.3199 35.9702 28.8209 35.9702H29.0431C33.2847 35.9702 35.5074 34.3422 35.5074 30.975C35.5074 26.7383 31.3584 25.9243 27.8947 24.8142C24.0421 23.5376 19.467 21.8726 19.467 16.3594C19.5041 11.6047 23.0604 8.88503 28.2467 8.88503H28.4689C33.9516 8.88503 37.9709 11.5862 37.9709 18.2095H34.8406C34.8406 13.2882 32.3957 11.7897 28.4689 11.7897H28.2467C24.4866 11.7897 22.6899 13.4177 22.6899 16.3594C22.6899 20.2075 26.2462 21.0956 29.4506 22.1316C33.4329 23.3712 38.6933 24.9067 38.6933 30.975C38.6933 36.0997 34.8036 38.8748 29.0617 38.8748H28.8394H28.8209Z" fill="#75391C"/>
<path d="M59.8088 9.29204V12.2337H50.8625V38.4308H47.6581V12.2337H38.7118V9.29204H59.8088Z" fill="#75391C"/>
<path d="M59.8088 38.4493V33.3616H64.9025V38.4493H59.8088Z" fill="#75391C"/>
<path d="M127.416 38.4493V34.2126C129.379 29.5504 133.398 27.3303 136.566 25.2397C140.159 22.9271 143.067 21.2621 143.067 17.4509C143.067 13.6397 141.437 11.7711 137.195 11.7711H136.973C132.361 11.7711 130.509 13.6953 130.509 18.561H127.379C127.379 11.9747 130.805 8.8665 136.955 8.8665H137.177C142.956 8.8665 146.197 12.0672 146.197 17.4509C146.197 22.5386 141.919 25.1473 138.418 27.4599C135.51 29.3469 131.824 31.271 130.546 34.6011V35.5077H146.086V38.4493H127.379H127.416Z" fill="#75391C"/>
<path d="M158.922 38.8748C153.18 38.8748 149.476 35.8037 149.476 28.4404V19.301C149.476 11.9562 153.199 8.8665 158.922 8.8665H159.144C164.886 8.8665 168.591 11.9932 168.591 19.301V28.4404C168.591 35.7482 164.868 38.8748 159.144 38.8748H158.922ZM159.126 35.9517C163.368 35.9517 165.368 34.0276 165.368 28.4219V19.2825C165.368 13.6767 163.349 11.7526 159.126 11.7526H158.904C154.625 11.7526 152.606 13.6767 152.606 19.2825V28.4219C152.606 34.0276 154.625 35.9517 158.904 35.9517H159.126ZM157.163 25.9243V22.2056H160.848V25.9243H157.163Z" fill="#75391C"/>
<path d="M171.943 38.4493V34.2126C173.907 29.5504 177.926 27.3303 181.093 25.2397C184.687 22.9271 187.595 21.2621 187.595 17.4509C187.595 13.6397 185.965 11.7711 181.723 11.7711H181.501C176.889 11.7711 175.037 13.6953 175.037 18.561H171.906C171.906 11.9747 175.333 8.8665 181.482 8.8665H181.705C187.484 8.8665 190.725 12.0672 190.725 17.4509C190.725 22.5386 186.446 25.1473 182.946 27.4599C180.038 29.3469 176.352 31.271 175.074 34.6011V35.5077H190.614V38.4493H171.906H171.943Z" fill="#75391C"/>
<path d="M214.174 29.5134V32.455H209.377V38.4308H206.21V32.455H193.281V27.4043L204.024 9.27351H209.377V29.4949H214.174V29.5134ZM205.747 12.2337L196.412 27.7929V29.4949H206.21V12.2337H205.747Z" fill="#75391C"/>
</svg>
