<svg width="1061" height="288" viewBox="0 0 1061 288" fill="none" xmlns="http://www.w3.org/2000/svg">
<path d="M1057.05 208.874C1052.15 205.84 1048.96 208.023 1045.42 211.575C1041.46 215.553 1036.99 219.494 1031.92 222.028C1026.14 224.914 1019.21 225.747 1013.68 221.122C1008.38 216.7 1008.69 210.632 1010.84 205.1C1014.6 195.369 1019.1 185.896 1023.25 176.294C1025.64 170.781 1028.88 165.397 1029.97 159.681C1031.22 153.168 1028.07 146.212 1020.88 145.527C1013.8 144.861 1007.14 149.413 1001.39 152.909C996.264 156.036 991.189 156.813 986.318 152.669C979.335 146.749 970.888 144.972 961.738 145.065C936.4 145.305 917.785 156.887 904.671 175.665C897.392 186.118 892.502 198.014 886.871 209.392C881.759 219.734 868.163 226.358 857.402 223.305C848.622 220.826 845.825 213.925 849.344 200.327C852.067 189.855 855.049 179.31 859.458 169.375C864.237 158.589 869.312 147.933 874.424 137.295C877.036 131.874 879.647 126.453 882.222 121.032C886.389 112.3 892.705 102.717 892.65 92.7076C892.576 79.461 875.535 81.7736 867.904 87.0279C855.735 95.4272 849.326 110.783 843.714 123.881C832.748 149.468 823.135 175.536 813.096 201.437C809.873 209.744 805.687 217.292 796.593 221.307C789.591 224.396 782.071 225.821 775.385 221.307C768.883 216.941 769.05 210.021 770.791 203.713C774.032 192.002 777.089 180.105 781.96 168.931C791.018 148.099 801.427 127.785 811.04 107.138C815.004 98.6279 817.931 81.3666 803.168 82.8097C787.202 84.3822 778.496 99.2014 772.162 112.096C770.18 116.148 768.216 120.2 766.29 124.27C762.456 132.392 758.77 140.606 755.343 148.895C747.582 167.599 740.84 186.655 733.672 205.581C730.616 213.629 725.8 220.215 716.483 222.972C712.334 224.193 707.574 224.1 703.796 221.843C693.423 215.609 699.572 200.216 701.925 191.132C704.685 180.457 708.574 170.041 711.056 159.329C712.186 154.445 711.334 148.839 705.37 146.156C692.812 140.514 680.476 155.851 675.475 165.545C668.844 178.44 663.583 191.946 657.86 205.23C653.378 215.646 645.82 222.676 633.225 223.878C617.018 225.432 617.889 208.56 622.334 197.903C632.077 174.463 642.209 151.17 652.118 127.785C656.026 118.553 660.101 109.358 663.269 99.9229C665.121 94.4097 665.454 87.9714 659.194 84.3267C651.877 80.0531 642.857 83.8642 636.911 88.8779C634.022 91.3016 631.577 94.2062 629.465 97.3328C625.335 103.438 622.464 110.302 619.778 117.129C618.296 120.921 616.833 124.714 615.407 128.525C612.647 135.833 609.961 143.178 607.257 150.504C603.682 160.162 601.7 160.772 594.236 153.483C589.364 148.728 583.622 146.267 576.954 145.416C561.951 143.492 545.892 147.896 533.352 156.498C515.497 168.727 505.458 185.822 498.215 204.582C495.03 212.833 490.103 219.605 481.008 222.972C470.562 226.839 461.097 221.492 460.634 211.298C460.448 206.987 461.226 202.51 462.412 198.31C464.153 192.15 467.042 186.248 468.765 180.087C475.303 156.794 457.262 139.718 432.331 146.545C416.458 150.893 390.934 167.895 390.934 167.895C389.934 159.329 390.767 140.884 376.208 145.379C370.763 147.063 367.095 151.707 364.465 156.461C363.187 158.774 362.113 161.179 361.002 163.566C360.224 165.231 359.427 166.896 358.649 168.561C353.111 180.457 347.795 192.446 342.72 204.508C339.145 213.018 333.829 219.531 324.309 222.62C318.437 224.507 312.38 225.247 307.342 220.992C302.508 216.904 302.712 211.39 304.267 206.173C306.046 200.253 308.472 194.481 310.973 188.764C315.233 178.977 320.604 169.505 323.957 159.477C327.402 149.172 319.122 142.419 308.009 145.934C303.601 147.322 299.637 150.116 295.71 152.595C290.079 156.147 285.004 156.48 279.355 152.299C275.91 149.764 271.705 147.47 267.463 146.582C267.167 146.527 266.871 146.452 266.574 146.397C206.858 134.63 161.126 212.981 178.13 264.432C181.983 276.069 190.132 285.69 202.839 287.41C206.988 287.965 211.211 287.669 215.267 286.707C233.197 282.415 246.385 266.819 256.498 252.462C257.461 251.093 258.443 249.706 259.425 248.337C259.943 247.615 260.462 246.912 260.962 246.246C260.999 246.246 260.999 248.411 260.981 251.075C260.981 251.685 260.981 252.296 260.981 252.906C261.036 255.533 261.258 258.179 261.666 260.769C263.87 274.774 272.446 287.54 287.82 287.651C289.412 287.651 290.987 287.54 292.561 287.318C293.913 287.133 295.247 286.855 296.544 286.504C301.489 285.19 306.12 282.878 310.213 279.825C314.381 276.698 318.011 272.924 321.771 269.353C322.716 268.465 323.66 267.577 324.642 266.708C326.365 265.172 327.846 263.415 330.403 260.769C330.699 263.748 330.847 265.043 330.94 266.338C331.829 279.325 338.626 286.467 350.888 287.318C365.132 288.298 374.893 282.082 377.042 269.113C378.616 259.604 378.246 249.817 378.931 240.159C379.839 227.579 383.71 215.905 392.323 205.896C397.046 200.382 402.844 196.146 410.808 195.517C420.144 194.777 425.478 199.938 424.07 208.449C423.496 211.908 422.292 215.294 421.162 218.661C416.402 232.944 410.419 246.949 411.531 262.379C412.846 280.935 426.793 290.703 446.427 286.504C459.948 283.618 470.043 276.162 478.563 266.56C482.119 262.545 485.565 258.456 490.214 253.054C491.01 256.736 491.418 258.789 491.899 260.825C497.975 286.522 525.351 295.847 547.429 279.085C555.042 273.294 560.858 265.468 567.211 258.327C569.99 255.2 572.009 251.519 575.028 247.152C576.139 254.849 576.528 261.361 578.121 267.633C582.066 283.081 596.014 290.315 612.61 286.134C622.797 283.562 630.354 277.679 636.8 270.334C640.467 266.153 643.931 261.787 648.302 256.532C648.877 259.807 649.136 261.694 649.525 263.563C653.878 284.506 672.4 293.738 693.016 283.766C706.444 277.272 717.798 262.693 718.873 260.584C719.706 262.841 724.652 271.814 725.411 273.239C732.079 285.912 743.082 290.074 759.659 286.559C772.903 283.766 782.923 276.569 791.444 267.263C793.5 265.024 795.667 262.86 798.408 260.029C798.519 260.288 801.038 268.188 801.205 268.724C806.354 284.617 819.32 290.648 838.787 286.171C853.105 282.878 863.07 274.441 871.738 264.358C872.535 263.433 878.388 256.68 881.425 253.258C882.037 256.477 882.314 258.16 882.685 259.826C888.112 284.654 909.339 294.515 932.251 282.175C939.326 278.363 945.55 272.795 951.051 267.115C956.552 261.454 962.239 252.518 966.98 246.227C967.073 246.227 966.906 258.549 967.11 260.751C969.351 284.746 991.43 294.959 1013.55 281.952C1024.73 275.366 1031.07 265.413 1037.75 254.701C1045.11 242.916 1052.15 230.927 1059.44 219.105C1062.04 214.906 1061.31 211.501 1057 208.837L1057.05 208.874ZM241.699 226.376C231.03 229.207 223.899 225.599 221.269 216.016C217.638 202.861 227.492 187.913 241.662 185.045C252.09 182.936 260.221 188.061 261.462 197.533C263.074 209.855 253.998 223.138 241.717 226.395L241.699 226.376ZM559.024 226.376C548.356 229.207 541.224 225.599 538.594 216.016C534.964 202.861 544.818 187.913 558.987 185.045C569.416 182.936 577.547 188.061 578.788 197.533C580.399 209.855 571.323 223.138 559.043 226.395L559.024 226.376ZM949.958 226.376C939.289 229.207 932.158 225.599 929.528 216.016C925.898 202.861 935.751 187.913 949.921 185.045C960.349 182.936 968.481 188.061 969.722 197.533C971.333 209.855 962.257 223.138 949.977 226.395L949.958 226.376Z" fill="#75391C"/>
<path d="M267.574 85.2333C271.427 50.4887 252.645 21.498 217.879 9.21341C198.967 2.53461 179.389 0.462521 159.552 0C148.216 0.999044 136.769 1.48007 125.582 3.07114C99.9097 6.7158 76.3307 14.7822 57.2897 30.9334C37.7115 47.5656 27.8576 68.2125 32.3585 94.1692C35.6926 113.336 50.6401 125.769 71.1444 126.823C90.0373 127.804 107.689 116.315 111.208 100.533C112.042 96.8148 113.135 92.8186 108.097 89.8585C98.3168 84.0677 95.9644 78.5175 98.2797 68.416C101.225 55.521 111.153 48.7497 123.452 44.6055C141.826 38.3892 161.126 37.4827 181.056 40.1098C209.748 43.8839 223.991 62.4588 217.027 87.7864C213.063 102.236 199.116 112.337 183.779 111.893C173.073 111.578 168.887 107.323 170.591 97.9803C171.536 92.8186 173.092 87.8049 174.462 82.7357C175.944 77.2594 178.056 71.9127 178.963 66.3439C180.26 58.4441 176.87 54.7254 168.239 53.2824C157.459 51.4878 148.938 56.6865 144.956 67.676C139.325 83.2907 134.38 99.1644 128.082 114.52C121.599 130.357 102.058 206.432 85.1288 214.314C66.3656 223.046 50.0474 216.441 42.2865 197.663C41.5456 195.868 38.1375 193.926 35.9148 193.741C32.729 193.482 29.3023 194.407 26.3202 195.517C9.87233 201.64 2.57451 214.425 0.518519 229.873C-3.44527 259.826 15.1883 287.78 53.3074 287.817C65.4395 287.817 77.6458 284.783 88.3702 279.122C93.7417 276.291 98.7798 272.776 103.17 268.576C120.544 252.018 125.378 226.45 132.157 204.138C137.51 186.525 141.641 168.283 148.124 151.041C151.976 140.791 155.94 140.162 167.127 144.251C174.87 147.082 183.427 149.413 191.466 149.413C233.178 149.413 263.333 123.567 267.574 85.2703V85.2333Z" fill="#75391C"/>
<path d="M703.462 123.715C710.223 124.363 717.484 123.844 724.059 122.216C733.82 119.793 738.877 110.875 738.469 99.6824C738.155 91.283 733.598 85.7513 724.67 83.5682C721.336 82.7542 717.78 82.7357 714.946 82.4211C711.26 82.6802 708.167 82.6802 705.166 83.1427C693.053 84.9928 685.699 93.7991 685.866 106.102C685.996 115.815 692.126 122.66 703.462 123.733V123.715Z" fill="#75391C"/>
</svg>
