<svg width="673" height="93" viewBox="0 0 673 93" fill="none" xmlns="http://www.w3.org/2000/svg">
<path d="M12.1322 62.3108L24.5236 4.69923H17.2258C8.20541 4.69923 4.09345 10.453 1.38918 18.1123L0 17.9273L3.6489 4.51421L4.3898 1.9241H53.4371L53.0667 4.51421L50.9551 17.9273L49.4733 18.1123C50.066 10.4345 48.4175 4.69923 39.4897 4.69923H31.9141L19.5226 62.3108C18.3001 67.972 21.097 69.3041 25.246 69.6001L24.9497 70.9507H2.96358L3.25993 69.6001C7.44599 69.3041 10.9097 67.972 12.1136 62.3108H12.1322Z" fill="#75391C"/>
<path d="M32.8958 59.0546C35.2481 48.1206 47.0284 41.9969 60.4941 44.587L61.8833 38.1672C63.5318 30.4893 59.568 27.5292 54.8633 27.5292C50.6402 27.5292 44.8427 29.9158 39.8602 36.1506L38.7859 35.7621C42.8238 28.5653 50.2513 23.1075 57.9195 23.1075C65.3285 23.015 70.9037 27.8992 68.8848 37.2976L63.1614 63.9389C62.7724 65.7519 62.5131 67.861 63.8467 67.861C64.1431 67.861 64.8284 67.7685 65.4767 67.38L65.9212 67.9535C64.495 69.6741 62.1612 71.5982 59.568 71.5982C56.4007 71.5982 55.2523 68.9156 55.9376 65.7519L56.1414 64.7899C52.8629 68.4345 48.0286 71.6907 42.3792 71.6907C34.8962 71.6907 31.3399 66.3254 32.9143 59.0361L32.8958 59.0546ZM46.2504 67.8795C50.0846 67.8795 53.8075 65.2894 56.8637 61.3672L59.994 46.7886C49.8438 44.8645 41.9347 49.5637 40.1195 58.0001C39.1008 62.6993 40.2121 67.8795 46.2504 67.8795Z" fill="#75391C"/>
<path d="M72.4411 62.6068L83.7953 9.78692C84.9622 4.32918 82.0357 3.64466 77.8682 4.32919V3.08964L92.7046 0.0184937L79.2388 62.6068C78.0719 68.0645 80.6835 69.3226 84.6473 69.6001L84.351 70.9506H63.717L64.0134 69.6001C68.1068 69.3041 71.2557 68.0645 72.4226 62.6068H72.4411Z" fill="#75391C"/>
<path d="M91.3339 62.6068L102.688 9.78692C103.855 4.32918 100.929 3.64466 96.761 4.32919V3.08964L111.597 0.0184937L98.1316 62.6068C96.9647 68.0645 99.5764 69.3226 103.54 69.6001L103.244 70.9506H82.6099L82.9062 69.6001C86.9997 69.3041 90.1485 68.0645 91.3154 62.6068H91.3339Z" fill="#75391C"/>
<path d="M107.134 47.1771C110.264 32.5984 120.007 23.015 130.287 23.015C140.566 23.015 144.882 31.9324 141.863 45.549H114.802C111.986 58.6846 115.913 66.7325 123.878 66.7325C128.675 66.7325 133.898 63.8648 138.251 58.7771L139.177 58.9621C135.343 66.0479 128.397 71.6167 120.433 71.6167C110.356 71.6167 103.929 62.2183 107.171 47.1771H107.134ZM135.306 42.9589C137.14 33.0795 135.176 25.6977 129.416 25.6977C123.267 25.6977 117.951 33.949 115.432 42.9589H135.306Z" fill="#75391C"/>
<path d="M143.271 62.6068L149.865 31.9324C151.032 26.4747 148.457 25.1241 144.567 24.8466L144.827 23.607H158.366L155.144 38.5557C158.904 30.0268 167.165 21.4979 174.888 23.5145L172.277 31.1739H171.795C165.646 28.1027 157.366 34.43 153.532 46.03L149.957 62.6068C148.79 68.0645 151.291 69.3226 155.162 69.6001L154.866 70.9506H134.621L134.917 69.6001C138.918 69.3041 142.067 68.0645 143.234 62.6068H143.271Z" fill="#75391C"/>
<path d="M210.859 63.3838C206.599 68.4716 201.616 71.5242 196.337 71.5242C187.595 71.5242 182.575 63.1803 185.928 47.6581C189.392 31.5624 199.282 23.015 208.692 23.015C212.526 23.015 215.786 24.3656 218.546 27.1407L222.269 9.78695C223.436 4.32921 220.509 3.64469 216.36 4.21821V2.97863L231.382 0L217.916 62.5883C216.749 68.046 219.361 69.3041 223.325 69.5816L223.028 70.9322H211.026C210.6 68.4346 210.581 65.8444 210.84 63.3653L210.859 63.3838ZM200.246 67.2135C204.284 67.2135 208.136 64.4384 211.359 60.5902L215.73 40.2763C217.509 31.5624 215.119 25.6977 209.081 25.6977C202.357 25.6977 196.486 33.838 193.911 45.8265C191.318 57.9076 192.874 67.195 200.264 67.195L200.246 67.2135Z" fill="#75391C"/>
<path d="M226.825 47.1771C229.956 32.5984 239.698 23.015 249.978 23.015C260.258 23.015 264.574 31.9324 261.555 45.549H234.494C231.678 58.6846 235.605 66.7325 243.57 66.7325C248.367 66.7325 253.59 63.8648 257.943 58.7771L258.869 58.9621C255.035 66.0479 248.089 71.6167 240.124 71.6167C230.048 71.6167 223.621 62.2183 226.862 47.1771H226.825ZM254.998 42.9589C256.832 33.0795 254.868 25.6977 249.108 25.6977C242.958 25.6977 237.642 33.949 235.123 42.9589H254.998Z" fill="#75391C"/>
<path d="M274.78 66.0664L278.225 49.1937H279.67C278.355 64.2349 285.245 69.2301 293.302 69.2301C301.841 69.2301 308.083 63.8648 309.676 56.002C311.565 46.8071 305.193 42.9589 296.766 38.3707C286.097 32.6169 282.763 26.6782 284.578 18.7228C286.856 8.56589 296.062 0.999054 308.639 0.999054C314.788 0.999054 320.437 2.81214 324.846 5.97578L321.715 21.8865H320.271C321.382 7.30782 314.492 3.68167 307.879 3.68167C299.433 3.68167 292.913 9.0469 291.487 15.6702C290.024 22.4785 294.784 27.0852 305.212 32.6355C314.288 37.7232 318.919 42.9774 316.622 53.2454C313.677 66.4735 303.36 72.0422 292.802 72.0422C286.375 72.0422 280.022 69.8406 274.78 66.1034V66.0664Z" fill="#75391C"/>
<path d="M317.178 59.0546C319.53 48.1206 331.31 41.9969 344.776 44.587L346.165 38.1672C347.814 30.4893 343.85 27.5292 339.145 27.5292C334.922 27.5292 329.124 29.9158 324.142 36.1506L323.068 35.7621C327.106 28.5653 334.533 23.1075 342.201 23.1075C349.61 23.015 355.185 27.8992 353.167 37.2976L347.443 63.9389C347.054 65.7519 346.795 67.861 348.128 67.861C348.425 67.861 349.11 67.7685 349.758 67.38L350.203 67.9535C348.777 69.6741 346.443 71.5982 343.85 71.5982C340.682 71.5982 339.534 68.9156 340.219 65.7519L340.423 64.7899C337.145 68.4345 332.31 71.6907 326.661 71.6907C319.178 71.6907 315.622 66.3254 317.196 59.0361L317.178 59.0546ZM330.532 67.8795C334.366 67.8795 338.089 65.2894 341.146 61.3672L344.276 46.7886C334.126 44.8645 326.216 49.5637 324.401 58.0001C323.383 62.6993 324.494 67.8795 330.532 67.8795Z" fill="#75391C"/>
<path d="M382.247 62.6068L387.396 38.6482C388.97 31.3589 385.581 27.9178 381.265 27.9178C377.727 27.8253 373.467 30.2119 369.392 34.9111L363.428 62.6068C362.261 68.0645 364.484 69.3226 367.966 69.6001L367.67 70.9507H348.369L348.666 69.6001C352.37 69.3041 355.426 68.0645 356.593 62.6068L363.187 31.9324C364.354 26.4747 361.872 25.1241 358.279 24.8466L358.538 23.6071H371.782L370.003 31.8584C374.986 25.6236 380.339 23.0335 385.155 23.0335C391.304 23.0335 396.657 27.5477 394.434 37.8897L389.119 62.6253C387.952 68.083 390.36 69.3411 394.045 69.6186L393.749 70.9691H374.356L374.653 69.6186C378.264 69.3226 381.024 68.083 382.21 62.6253L382.247 62.6068Z" fill="#75391C"/>
<path d="M392.064 79.8681C392.99 75.5574 396.861 71.8202 402.029 69.7111C397.157 68.268 396.102 64.7344 396.768 61.5708C397.676 57.3526 401.547 54.0964 405.807 52.5608C402.677 49.6932 401.158 45.179 402.399 39.4253C404.566 29.3608 413.92 22.941 422.07 22.941C425.237 22.941 428.201 23.9031 430.516 25.6236C433.554 20.8319 438.925 18.6303 443.241 19.5924L441.278 25.6236H440.796C438.147 24.0881 434.98 24.5691 431.739 26.6782C434.573 29.5458 436.036 33.9675 434.869 39.3328C432.665 49.5822 423.052 55.9095 414.994 55.9095C412.123 55.9095 409.308 55.1325 407.141 53.6154C404.863 54.8549 402.733 56.6865 402.269 58.8881C401.751 61.2747 403.529 63.7723 409.289 64.1609L420.032 64.6419C428.182 65.1229 431.794 69.7296 430.257 76.9079C428.182 86.5838 418.699 92.2451 408.048 92.2451C397.972 92.2451 390.415 87.6384 392.082 79.8866L392.064 79.8681ZM410.16 89.4515C418.699 89.4515 423.7 84.4747 424.83 79.2945C425.793 74.7988 422.94 71.5242 416.976 71.1542L406.474 70.4881L403.844 70.1921C400.602 72.7822 399.102 75.7424 398.565 78.24C397.231 84.4748 401.436 89.4515 410.16 89.4515ZM415.55 53.2084C420.829 53.2084 425.719 47.8431 427.534 39.4067C429.349 30.9704 426.738 25.6977 421.459 25.6977C416.18 25.6977 411.401 30.9704 409.586 39.4067C407.771 47.8431 410.16 53.2084 415.55 53.2084Z" fill="#75391C"/>
<path d="M441.037 56.5755L446.334 31.9324C447.501 26.4747 445.112 25.1241 441.426 24.8466L441.685 23.6071H454.929L448.001 55.817C446.427 63.1063 449.983 66.6399 454.317 66.6399C457.874 66.6399 462.412 64.2348 466.727 59.3506L472.617 31.9324C473.784 26.4747 471.488 25.1241 468.005 24.8466L468.283 23.6071H481.138L472.747 62.6253C471.58 68.083 474.081 69.3411 477.674 69.6186L477.378 70.9691H465.857C465.672 68.2865 465.709 65.4189 466.135 62.5328C460.93 68.86 455.169 71.5427 450.372 71.5427C444.223 71.5427 438.758 67.0285 441.018 56.594L441.037 56.5755Z" fill="#75391C"/>
<path d="M481.453 47.1771C484.527 32.8944 494.715 23.015 506.032 23.015C511.311 23.015 515.626 25.2166 518.905 27.8992L516.497 39.4993H515.256C514.811 30.8779 511.589 25.7901 505.532 25.7901C497.475 25.7901 491.381 34.8925 489.084 45.623C486.565 57.3155 489.806 66.8065 498.345 66.8065C503.328 66.8065 508.273 63.4578 512.422 58.4626L513.219 58.7586C509.255 66.0479 502.494 71.5982 494.529 71.5982C484.453 71.5982 478.211 62.1998 481.453 47.1586V47.1771Z" fill="#75391C"/>
<path d="M517.182 62.6068L528.537 9.78695C529.703 4.32921 526.888 3.64469 522.924 4.21821V2.97863L537.464 0L530.611 31.8214C535.501 25.5867 540.947 22.9965 545.651 22.9965C551.801 22.9965 557.543 27.5107 555.32 37.8527L550.004 62.5883C548.837 68.046 551.245 69.3041 554.931 69.5816L554.635 70.9322H535.242L535.538 69.5816C539.15 69.2856 541.91 68.046 543.095 62.5883L548.244 38.6297C549.819 31.3404 546.133 27.8992 541.817 27.8992C538.261 27.8992 534.019 30.1933 529.944 34.8925L523.98 62.5883C522.813 68.046 525.221 69.3041 529 69.5816L528.703 70.9322H508.644L508.94 69.5816C512.941 69.2856 515.997 68.046 517.164 62.5883L517.182 62.6068Z" fill="#75391C"/>
<path d="M561.636 62.6068L568.23 31.9324C569.397 26.4747 566.822 25.1241 562.84 24.8466L563.118 23.6071H576.75L568.36 62.6253C567.193 68.083 569.897 69.3411 573.861 69.6186L573.565 70.9691H552.838L553.134 69.6186C557.32 69.3226 560.469 68.083 561.655 62.6253L561.636 62.6068ZM576.324 5.47626C579.103 5.47626 580.807 7.86285 580.159 10.8415C579.51 13.8201 576.713 16.1142 574.028 16.1142C571.342 16.1142 569.434 13.8201 570.082 10.8415C570.712 7.86285 573.546 5.47626 576.324 5.47626Z" fill="#75391C"/>
<path d="M578.214 59.1471L585.197 26.6597H579.047L579.381 25.1241C584.548 23.8846 590.049 19.2779 594.254 11.3225H595.495L592.865 23.5885H604.571L603.904 26.6597H592.198L585.437 58.0926C584.27 63.5503 585.271 66.9175 589.29 66.9175C591.309 66.9175 593.495 66.1589 596.347 63.5688L597.162 63.7538C593.939 68.453 590.105 71.6167 585.197 71.6167C578.862 71.6167 576.621 66.4364 578.177 59.1471H578.214Z" fill="#75391C"/>
<path d="M598.829 47.1771C601.978 32.5059 612.758 23.015 623.501 23.015C634.244 23.015 641.134 32.5059 637.986 47.1771C634.818 61.9407 623.89 71.6167 613.054 71.6167C602.219 71.6167 595.643 61.9407 598.829 47.1771ZM613.61 69.0266C621.482 69.0266 627.706 58.8696 630.206 47.1771C632.707 35.5771 630.817 25.6051 622.945 25.6051C615.073 25.6051 609.091 35.5771 606.59 47.1771C604.089 58.7771 605.738 69.0266 613.591 69.0266H613.61Z" fill="#75391C"/>
<path d="M635.411 67.2135L638.411 54.5589H639.56C639.727 65.8629 645.265 69.1376 650.432 69.1376C655.23 69.1376 659.49 66.2699 660.657 60.8862C661.916 55.0399 657.878 52.8383 651.525 49.3787C644.635 45.734 640.745 42.8664 642.171 36.1506C643.931 28.0102 651.136 23.015 659.786 23.015C663.917 23.015 668.436 24.2546 672.27 26.5672L669.418 38.4447H668.27C668.418 28.3803 663.843 25.6051 659.027 25.6051C653.841 25.6051 649.488 28.8613 648.525 33.3755C647.358 38.8332 652.285 40.4613 658.786 44.106C664.732 47.2696 668.547 50.5257 666.973 57.8151C665.01 66.9175 657.527 71.8017 649.655 71.8017C645.135 71.8017 640.134 70.0811 635.374 67.195L635.411 67.2135Z" fill="#75391C"/>
</svg>
