<svg width="215" height="30" viewBox="0 0 215 30" fill="none" xmlns="http://www.w3.org/2000/svg">
<path d="M17.8 3.36715H3.16731V13.4501H14.503V16.3917H3.16731V26.6042H17.8V29.5458H0V0.38855H17.8V3.33017V3.36715Z" fill="#75391C"/>
<path d="M28.8209 30.0083C22.8752 30.0083 18.8002 27.2702 18.8002 20.6469H21.9676C21.9676 25.5681 24.3199 27.1037 28.8209 27.1037H29.0431C33.2847 27.1037 35.5074 25.4757 35.5074 22.1085C35.5074 17.8718 31.3584 17.0578 27.8947 15.9477C24.0421 14.6711 19.467 13.0061 19.467 7.49287C19.5041 2.73816 23.0604 0.0185242 28.2467 0.0185242H28.4689C33.9516 0.0185242 37.9709 2.71966 37.9709 9.34295H34.8406C34.8406 4.42174 32.3957 2.92317 28.4689 2.92317H28.2467C24.4866 2.92317 22.6899 4.55124 22.6899 7.49287C22.6899 11.341 26.2462 12.2291 29.4506 13.2651C33.4329 14.5047 38.6933 16.0402 38.6933 22.1085C38.6933 27.2332 34.8036 30.0083 29.0617 30.0083H28.8394H28.8209Z" fill="#75391C"/>
<path d="M59.8088 0.425537V3.36716H50.8625V29.5643H47.6581V3.36716H38.7118V0.425537H59.8088Z" fill="#75391C"/>
<path d="M59.8088 29.5828V24.4951H64.9025V29.5828H59.8088Z" fill="#75391C"/>
<path d="M127.416 29.5828V25.3461C129.379 20.6839 133.398 18.4638 136.566 16.3732C140.159 14.0606 143.067 12.3956 143.067 8.58441C143.067 4.77324 141.437 2.90464 137.195 2.90464H136.973C132.361 2.90464 130.509 4.82875 130.509 9.69447H127.379C127.379 3.10818 130.805 0 136.955 0H137.177C142.956 0 146.197 3.20067 146.197 8.58441C146.197 13.6721 141.919 16.2808 138.418 18.5934C135.51 20.4804 131.824 22.4045 130.546 25.7346V26.6412H146.086V29.5828H127.379H127.416Z" fill="#75391C"/>
<path d="M158.922 30.0083C153.18 30.0083 149.476 26.9372 149.476 19.5739V10.4345C149.476 3.08966 153.199 0 158.922 0H159.144C164.886 0 168.591 3.12667 168.591 10.4345V19.5739C168.591 26.8817 164.868 30.0083 159.144 30.0083H158.922ZM159.126 27.0852C163.368 27.0852 165.368 25.1611 165.368 19.5554V10.416C165.368 4.81022 163.349 2.88612 159.126 2.88612H158.904C154.625 2.88612 152.606 4.81022 152.606 10.416V19.5554C152.606 25.1611 154.625 27.0852 158.904 27.0852H159.126ZM157.163 17.0578V13.3391H160.848V17.0578H157.163Z" fill="#75391C"/>
<path d="M171.943 29.5828V25.3461C173.907 20.6839 177.926 18.4638 181.093 16.3732C184.687 14.0606 187.595 12.3956 187.595 8.58441C187.595 4.77324 185.965 2.90464 181.723 2.90464H181.501C176.889 2.90464 175.037 4.82875 175.037 9.69447H171.906C171.906 3.10818 175.333 0 181.482 0H181.705C187.484 0 190.725 3.20067 190.725 8.58441C190.725 13.6721 186.446 16.2808 182.946 18.5934C180.038 20.4804 176.352 22.4045 175.074 25.7346V26.6412H190.614V29.5828H171.906H171.943Z" fill="#75391C"/>
<path d="M214.174 20.6469V23.5885H209.377V29.5643H206.21V23.5885H193.281V18.5378L204.024 0.407013H209.377V20.6284H214.174V20.6469ZM205.747 3.36716L196.412 18.9263V20.6284H206.21V3.36716H205.747Z" fill="#75391C"/>
</svg>
