<svg width="45" height="45" viewBox="0 0 45 45" fill="none" xmlns="http://www.w3.org/2000/svg">
<path d="M38.3829 11.7342C38.4755 11.8452 38.5496 11.9932 38.6792 12.0672C38.9756 12.2707 39.309 12.4187 39.6053 12.6407C39.8276 12.8072 40.0314 13.0292 40.2351 13.2142C40.2721 13.2512 40.2907 13.3067 40.3462 13.3252C41.0501 13.6212 41.3279 14.3058 41.7169 14.8608C42.254 15.6563 42.7356 16.5074 43.106 17.3954C43.3654 17.9874 43.5506 18.635 43.458 19.301C43.3839 19.745 43.5135 20.1335 43.5135 20.5405C43.5135 21.1695 43.3654 21.8171 43.2172 22.4276C43.0875 22.9272 43.1801 23.5006 43.5506 23.8337C43.7358 24.0002 43.9396 24.1667 44.1248 24.3517C44.3841 24.6107 44.2915 24.9437 44.3285 25.2397C44.3656 25.4802 44.4026 25.7208 44.4397 25.9613C44.4952 26.3313 44.5508 26.7013 44.6064 27.0898C44.6805 27.6633 44.7175 28.2184 44.6434 28.8104C44.5879 29.2174 44.6804 29.6429 44.6619 30.05C44.6619 30.272 44.5878 30.4939 44.5323 30.716C44.4396 31.0675 44.2915 31.382 44.4026 31.789C44.4582 31.9925 44.2174 32.307 44.0877 32.566C44.0322 32.677 43.921 32.7696 43.8469 32.8991C43.5691 33.4726 43.2357 34.0461 43.069 34.6566C42.9394 35.1747 42.5504 35.4707 42.2726 35.8592C42.0688 36.1737 41.8836 36.4883 41.7169 36.8213C41.5687 37.0988 41.4761 37.3393 41.0686 37.3948C40.624 37.4503 40.3647 37.8758 40.2166 38.2828C40.1054 38.5973 39.8831 38.7638 39.6238 38.9303C39.2904 39.1523 39.0126 39.4669 38.6792 39.7444C38.5125 39.8739 38.3273 39.9849 38.1606 40.0959C37.9013 40.2624 37.6605 40.4474 37.4197 40.6324C37.1974 40.7804 36.9566 40.9284 36.7343 41.0764C36.438 41.2799 36.1416 41.5205 35.8268 41.687C35.3822 41.9275 34.8821 42.057 34.4746 42.316C33.9189 42.6675 33.1966 42.538 32.715 43.0375C32.6409 43.1115 32.4927 43.13 32.3816 43.167C31.5481 43.3705 30.6961 43.574 29.8625 43.7775C29.7514 43.796 29.6588 43.8886 29.5476 43.9256C29.3995 43.9811 29.2328 44.0921 29.1031 44.0736C28.4363 43.9996 27.8251 44.2031 27.1768 44.3326C27.1212 44.3326 27.0471 44.2956 26.9731 44.3141C26.7508 44.3511 26.5285 44.4066 26.3062 44.4436C26.2321 44.4436 26.1581 44.5361 26.1025 44.5176C25.5839 44.3511 25.0097 44.7026 24.4911 44.3326C24.417 44.2771 24.2873 44.2771 24.1947 44.3141C23.5279 44.5361 22.8611 44.3141 22.1943 44.3141C21.8608 44.3141 21.546 44.1845 21.1941 44.3511C21.0644 44.4251 20.8421 44.2586 20.6569 44.2401C20.3976 44.2031 20.1383 44.1846 19.8605 44.1476C19.7308 44.1476 19.6011 44.1291 19.49 44.0736C19.2307 43.9626 18.9899 43.8886 18.7121 43.9811C18.5639 44.0181 18.3786 43.9441 18.2119 43.9256C17.7304 43.8516 17.2488 43.8145 16.7857 43.722C16.3968 43.648 16.0078 43.537 15.6188 43.4445C15.3966 43.4075 15.1743 43.4445 14.952 43.389C14.6742 43.3335 14.3963 43.241 14.1185 43.1485C13.8777 43.056 13.6554 42.9635 13.4147 42.8525C13.3591 42.834 13.285 42.834 13.248 42.797C12.7108 42.353 12.007 42.4455 11.4143 42.242C11.1735 42.1495 10.9512 41.9645 10.7104 41.9275C10.3955 41.8535 10.1177 41.7054 9.83984 41.5759C9.11747 41.2429 8.58031 40.6694 7.9135 40.2809C7.85793 40.2439 7.82087 40.2069 7.78383 40.1514C7.2652 39.3744 6.50579 38.8379 5.82046 38.2088C5.41297 37.8388 5.09809 37.3948 4.72764 37.0063C4.65355 36.9138 4.52391 36.8583 4.44982 36.7658C4.35721 36.6733 4.26459 36.5807 4.20902 36.4697C4.11641 36.2292 4.06084 36.0072 3.74596 35.9702C3.69039 35.9702 3.63485 35.8407 3.59781 35.7667C3.44963 35.4892 3.28289 35.2302 3.15323 34.9527C3.0421 34.7492 2.94948 34.5271 2.85686 34.3051C2.59755 33.6946 2.33827 33.0656 2.07896 32.4366C1.85669 31.9001 1.54181 31.3635 1.39364 30.8085C1.30102 30.4755 1.24547 30.161 1.06025 29.8649C1.00468 29.7724 1.02317 29.6059 1.02317 29.4764C1.02317 29.4209 1.07877 29.3469 1.06025 29.3284C0.689798 28.9214 0.967589 28.3849 0.782365 27.9224C0.560096 27.3489 0.449 26.7383 0.300821 26.1463C0.300821 26.1093 0.300803 26.0538 0.282281 26.0353C-0.236346 25.6467 0.0970408 25.2397 0.208175 24.8142C0.24522 24.6662 0.189673 24.4997 0.171151 24.3332C0.171151 23.6857 0.115584 23.0381 0.171151 22.4091C0.208196 21.8911 0.245209 21.3175 0.486 20.892C0.763836 20.3925 0.578657 19.856 0.763881 19.3749C0.782403 19.3194 0.763861 19.227 0.800905 19.19C1.2084 18.931 1.07876 18.4869 1.17138 18.1169C1.28251 17.7099 1.43067 17.2844 1.67146 16.9513C1.91225 16.6183 2.11599 16.3593 1.94929 15.9338C1.89372 15.7858 1.94932 15.5453 2.04193 15.3973C2.28272 15.0458 1.98635 14.8423 1.8567 14.6018C1.72704 14.3613 1.46769 14.1577 1.35655 13.8987C1.13429 13.3807 0.875011 12.8627 0.875011 12.2337C0.875011 11.8266 0.634197 11.4196 0.50454 11.0126C0.486018 10.9571 0.504522 10.8831 0.486 10.8091C0.448955 10.5131 0.430437 10.2171 0.37487 9.92106C0.337825 9.73605 0.319319 9.60656 0.448975 9.42156C0.56011 9.27355 0.541583 8.99603 0.560105 8.77402C0.615672 8.367 0.65271 7.95997 0.7268 7.55295C0.763845 7.29394 0.837925 7.01641 0.94906 6.77589C1.15281 6.31337 1.39363 5.86939 1.6159 5.42537C1.7826 5.12936 1.93077 4.81482 2.13452 4.53731C2.30122 4.3153 2.50496 4.1488 2.70871 3.96379C2.9495 3.74178 3.1903 3.51976 3.46814 3.31625C4.00528 2.92773 4.5054 2.4652 5.09811 2.20619C5.85753 1.89168 6.70952 1.78068 7.48746 1.52167C7.95052 1.35516 8.4136 1.41065 8.83962 1.28115C9.24711 1.17014 9.56199 1.28116 9.93243 1.35517C10.1732 1.41067 10.4325 1.33667 10.6919 1.35517C10.8956 1.35517 11.1179 1.35518 11.3031 1.42919C11.6921 1.59569 12.0811 1.74372 12.5071 1.85473C12.8775 1.94723 13.1924 2.29872 13.5258 2.52073C13.6925 2.63173 13.8963 2.72424 14.0259 2.87225C14.2852 3.13126 14.5631 3.40876 14.7668 3.72327C15.0632 4.16729 15.2854 4.64833 15.5447 5.12935C15.6929 5.38836 15.9152 5.22185 16.1004 5.24035C16.3227 5.24035 16.5449 5.24037 16.7487 5.20337C16.9154 5.18487 17.0821 5.12934 17.2117 5.05533C17.5266 4.85182 17.823 4.66681 18.2305 4.81481C18.3416 4.85181 18.4898 4.75935 18.638 4.74085C19.2863 4.64835 19.916 4.53733 20.5643 4.44483C21.2682 4.35233 21.972 4.20429 22.6944 4.18579C23.2315 4.18579 23.7872 4.14882 24.2873 4.38933C24.3614 4.42633 24.454 4.42631 24.5281 4.42631C24.8244 4.37081 25.1208 4.42629 25.3986 4.51879C25.8617 4.7223 26.4544 4.35233 26.6026 3.87131C26.6582 3.6308 26.8619 3.4458 27.0286 3.24229C27.1953 3.02028 27.4361 2.83526 27.5287 2.59475C27.6584 2.28023 27.788 2.0027 28.1029 1.81769C28.3066 1.70668 28.4178 1.44765 28.603 1.33665C28.8994 1.17014 29.2143 1.07769 29.5292 0.929685C29.77 0.81868 29.9922 0.689132 30.2145 0.596628C30.4367 0.504124 30.659 0.430111 30.8998 0.356108C30.9368 0.356108 31.0109 0.356146 31.048 0.337646C31.511 -0.143376 32.0667 0.0416054 32.6224 0.078607C33.0299 0.115609 33.4559 0.0231452 33.8819 0.00464442C33.9745 0.00464442 34.0857 -0.0138948 34.1598 0.0231068C34.734 0.430125 35.4563 0.411617 36.086 0.652128C36.2898 0.726131 36.5121 0.800141 36.6788 0.948148C37.0863 1.28116 37.5864 1.4292 37.8827 1.96573C38.1976 2.52075 38.7348 2.92777 39.1793 3.40879C39.2349 3.46429 39.3089 3.53827 39.3275 3.61227C39.4942 4.09329 39.6053 4.59279 39.8276 5.03681C40.0314 5.48083 40.1055 5.88787 40.0128 6.38739C39.9758 6.5724 40.1795 6.79444 40.198 6.99795C40.198 7.47897 40.2536 7.99699 40.1054 8.44101C39.9202 9.07004 39.5868 9.66207 39.2904 10.2356C39.0311 10.7351 38.7162 11.1976 38.4569 11.6601L38.3829 11.7342ZM34.5117 22.9271C33.8449 23.0936 32.752 23.0011 31.9741 22.7976C31.5666 22.6866 31.2517 22.4831 30.9183 22.2426C30.4923 21.9281 30.0292 21.6321 29.6032 21.299C29.455 21.188 29.3068 21.0401 29.2513 20.8736C29.029 20.2815 28.6771 19.8005 28.14 19.4675C28.0844 19.4305 28.0474 19.301 28.0289 19.227C27.9733 18.7459 27.9362 18.2649 27.9177 17.7839C27.8807 17.1549 27.7695 16.5258 27.8992 15.9338C28.0659 15.1938 28.4363 14.4908 28.7142 13.7877C28.8068 13.5657 28.9364 13.3622 28.955 13.1402C29.0661 12.4186 29.6402 12.1782 30.1774 11.8821C30.7331 11.5861 31.3258 11.4011 31.8815 11.0866C32.2149 10.9016 32.5112 10.6981 32.9187 10.8646C32.9743 10.8831 33.0669 10.8091 33.141 10.7906C33.3077 10.7351 33.4929 10.6981 33.6596 10.6611C33.8263 10.6241 34.0116 10.6241 34.1598 10.6056C33.9745 10.2911 33.8078 10.0136 33.6411 9.75456C33.6226 9.71756 33.5855 9.66206 33.5485 9.64356C33.1225 9.32904 32.715 9.03303 32.289 8.71852C32.1778 8.62601 32.0297 8.552 31.937 8.4225C31.6407 8.03398 31.2517 7.90448 30.7887 7.84897C30.6034 7.83047 30.3997 7.70098 30.2515 7.57147C30.0107 7.33096 29.7699 7.21992 29.4365 7.18292C29.2328 7.16441 28.9365 7.18296 28.8438 7.05345C28.4734 6.59093 27.8992 6.86842 27.4361 6.62791C26.9175 6.3504 26.2507 6.36892 25.6394 6.23941C25.2505 6.16541 24.88 5.98039 24.5096 5.99889C24.1576 5.99889 23.8057 6.23941 23.4908 5.88789C23.4908 5.88789 23.4168 5.90639 23.3797 5.88789C22.8426 5.85089 22.3239 5.85085 21.7868 5.96185C21.1755 6.07286 20.5273 6.01741 19.916 6.12841C18.9529 6.29492 18.0082 6.55392 17.045 6.75743C16.6375 6.84994 16.193 6.81295 15.8041 6.94245C15.0817 7.18296 14.3408 7.42344 13.6925 7.83046C13.0812 8.20047 12.2292 8.16347 11.7847 8.8665C11.7662 8.9035 11.692 8.9035 11.655 8.922C11.4513 8.996 11.2661 9.06999 11.0623 9.144C10.5622 9.32901 10.2288 9.84705 9.63607 9.92106C9.48789 9.93956 9.0619 10.106 9.02485 10.5316C9.02485 10.7166 8.65437 10.9386 8.41358 10.9941C8.0987 11.0681 7.96907 11.2716 7.80237 11.4936C7.72828 11.5861 7.67272 11.7156 7.58011 11.7711C7.22818 11.9746 6.85772 12.1597 6.69101 12.5852C6.65397 12.6777 6.56137 12.7702 6.46875 12.8442C6.13535 13.1772 5.76493 13.4732 5.45004 13.8247C5.30187 13.9912 5.26478 14.2688 5.1166 14.4538C4.85729 14.7868 4.56096 15.0828 4.28312 15.3788C4.11642 15.5638 4.00526 15.7488 4.02378 16.0263C4.02378 16.1558 3.94972 16.3038 3.87563 16.3963C3.74597 16.5443 3.54221 16.6369 3.44959 16.8034C3.26437 17.1734 3.15326 17.5804 2.94951 17.9319C2.57906 18.5794 2.72723 19.375 2.35678 20.0225C2.35678 20.0595 2.35678 20.0965 2.35678 20.1335C2.30121 20.374 2.24565 20.6145 2.19009 20.855C2.116 21.1326 2.00485 21.4101 1.94929 21.7061C1.8752 22.0946 1.87518 22.4831 1.81961 22.8716C1.76405 23.2231 1.72702 23.5562 1.78259 23.9077C1.85668 24.3702 1.78259 24.8327 1.78259 25.3138C1.78259 25.3693 1.78259 25.4248 1.78259 25.4803C1.94929 25.8688 1.85668 26.3683 2.30122 26.6458C2.31974 26.6458 2.30122 26.7568 2.30122 26.8123C2.30122 27.1083 2.30119 27.4228 2.33824 27.7188C2.35676 27.9778 2.43088 28.2184 2.48645 28.4774C2.5235 28.6624 2.52349 28.8659 2.59758 29.0509C2.69019 29.2914 2.91249 29.5134 2.91249 29.7354C2.89396 30.3459 3.20882 30.827 3.41257 31.345C3.63484 31.863 3.89412 32.3441 4.13491 32.8436C4.37571 33.3246 4.4498 33.8981 4.9499 34.2312C5.02399 34.2682 5.00547 34.4161 5.06103 34.4901C5.2833 34.9712 5.41298 35.5077 5.95013 35.8037C6.13535 35.8962 6.22799 36.1552 6.37616 36.3217C6.50582 36.4697 6.63548 36.6178 6.78366 36.7658C6.91332 36.9138 7.06146 37.0433 7.20964 37.1728C7.37634 37.3208 7.54308 37.4873 7.70978 37.6168C7.87648 37.7463 8.0617 37.8388 8.2284 37.9868C8.4692 38.1903 8.69145 38.4123 8.91372 38.6343C8.96929 38.6898 9.00631 38.7638 9.06188 38.8193C9.17301 38.9303 9.28419 39.0414 9.39532 39.1339C9.48794 39.2079 9.65461 39.2079 9.71017 39.3004C10.1177 39.8924 10.8215 39.8924 11.3957 40.1884C11.7847 40.3919 12.2477 40.3919 12.5997 40.7249C12.6552 40.7804 12.7849 40.8174 12.8775 40.8359C13.3961 40.8914 13.8036 41.3355 14.3778 41.2245C14.4704 41.2245 14.6001 41.2799 14.6742 41.3539C14.8779 41.5389 15.1187 41.613 15.378 41.502C15.4336 41.4835 15.5262 41.5019 15.6003 41.539C15.8411 41.6315 16.0819 41.761 16.3412 41.8165C16.9895 41.9275 17.6563 41.9275 18.2861 42.168C18.5268 42.2605 18.8417 42.168 19.1196 42.168C19.6197 42.205 20.2124 42.1495 20.6014 42.3715C21.1015 42.649 21.5645 42.5195 22.0276 42.4825C22.3424 42.464 22.6018 42.427 22.787 42.6675C22.9722 42.6305 23.1389 42.575 23.3056 42.5565C23.5834 42.538 23.8613 42.575 24.1391 42.538C24.4911 42.4825 24.8244 42.4085 25.1578 42.612C25.2319 42.649 25.3246 42.6305 25.4172 42.612C26.0655 42.5565 26.7323 42.501 27.3806 42.464C27.6213 42.464 27.8436 42.427 28.0103 42.2235C28.1029 42.1125 28.2882 42.0385 28.4363 42.02C29.1402 41.946 29.8625 41.9645 30.5479 41.835C31.1962 41.687 31.8444 41.4279 32.4557 41.1319C32.9928 40.8914 33.4744 40.5769 34.0671 40.4844C34.4005 40.4289 34.771 40.3364 35.0488 40.1699C35.623 39.7999 36.1602 39.3743 36.7159 38.9858C36.8455 38.8933 37.0307 38.8563 37.1418 38.7453C37.6234 38.3013 38.105 37.8573 38.5681 37.3948C38.7533 37.2098 39.0126 37.0248 39.0867 36.8027C39.1793 36.4697 39.4386 36.4327 39.6609 36.2847C39.9017 36.1182 40.1054 35.8962 40.2907 35.6742C40.4203 35.5077 40.4944 35.3042 40.6055 35.1192C40.976 34.5271 41.4946 34.0277 41.6798 33.3061C41.8095 32.7696 42.1614 32.307 42.3096 31.7705C42.4763 31.16 42.7912 30.5865 42.7727 29.9019C42.7541 29.3654 42.8652 28.8104 42.9208 28.2739C42.9393 28.0334 42.9579 27.7743 42.9208 27.5338C42.8652 26.9973 42.7726 26.4793 42.68 25.9428C42.643 25.7023 42.5504 25.4802 42.4393 25.2767C42.3281 25.0732 42.1429 24.9252 41.9762 24.7217C41.7354 24.8142 40.976 24.7217 40.8649 24.5182C40.6796 24.2037 40.4018 24.1667 40.0869 24.1297C39.7164 24.0742 39.3275 24.0557 39.0126 23.9077C38.6051 23.7227 38.1976 23.6857 37.7716 23.6857C37.4567 23.6857 37.1233 23.8892 36.8826 23.8152C36.2343 23.6302 35.8823 24.0557 35.4378 24.3332C35.2896 24.4257 35.197 24.6292 35.0859 24.7772C34.9933 24.8882 34.9192 24.9992 34.8636 25.0918C34.771 25.3693 34.6784 25.6097 34.6228 25.8688C34.5672 26.0723 34.4931 26.2758 34.4931 26.4793C34.4746 26.7753 34.5117 27.0898 34.4746 27.3673C34.419 27.6818 34.2153 27.9224 34.3635 28.3109C34.5302 28.7734 34.5117 29.3099 34.5673 29.8094C34.5673 29.8649 34.6413 29.9389 34.6969 29.9759C34.9191 30.1794 35.2525 30.3645 35.3452 30.6235C35.5304 31.1045 35.9935 31.234 36.3084 31.345C36.8085 31.53 37.3085 31.715 37.7716 31.9555C38.1976 32.1776 38.3643 32.7326 38.105 33.0471C37.9013 33.2876 37.4382 33.3431 37.1233 33.2136C36.7899 33.0656 36.4565 32.9176 36.086 32.8806C35.3637 32.8436 34.9933 32.196 34.4376 31.863C34.0486 31.641 33.7893 31.234 33.4559 30.9195C33.2522 30.7345 33.1595 30.5125 33.1781 30.235C33.1781 30.124 33.141 29.9944 33.1225 29.8464C32.9002 30.0129 32.752 30.1424 32.5668 30.2534C32.1037 30.5125 31.6592 30.7715 31.1776 30.9565C30.8442 31.086 30.4368 31.0675 30.1033 31.2155C29.8255 31.345 29.5847 31.308 29.3254 31.2895C29.2143 31.2895 29.1031 31.2895 28.9735 31.2895C28.3252 31.2895 27.7325 30.9935 27.1398 30.7715C27.0101 30.716 26.9545 30.5495 26.8434 30.4385C26.51 30.0869 26.158 29.7539 25.7876 29.3839C25.7876 29.4024 25.7135 29.5135 25.6394 29.606C25.3801 29.865 25.1949 30.235 24.7504 30.272C24.6207 30.272 24.491 30.383 24.3429 30.4385C23.9539 30.5865 23.5464 30.753 23.1389 30.8455C22.6203 30.975 22.1017 30.9195 21.583 30.7345C21.157 30.5865 20.7125 30.4755 20.268 30.346C20.2124 30.5865 20.1938 30.9195 20.0642 31.197C19.8604 31.6225 19.6012 32.0296 19.3418 32.4366C19.1196 32.7696 18.9899 33.1396 18.5824 33.3431C18.2861 33.4911 17.9897 33.7316 17.86 33.9906C17.6933 34.3237 17.434 34.4716 17.1377 34.5826C17.008 34.6381 16.7857 34.6382 16.7302 34.7307C16.5079 35.1377 16.1189 35.1562 15.7485 35.2487C15.2299 35.3782 14.563 34.8972 14.6742 34.3977C14.7297 34.1572 14.952 33.8981 15.1743 33.7501C15.5818 33.4911 16.0448 33.3061 16.4708 33.0841C16.5264 33.0471 16.582 32.9916 16.619 32.9361C16.8784 32.6586 17.1192 32.3256 17.434 32.1406C17.7674 31.9556 18.0082 31.715 18.1564 31.382C18.3231 31.0305 18.4712 30.679 18.6009 30.3275C18.675 30.1054 18.7121 29.8834 18.7121 29.6429C18.7121 29.4394 18.675 29.2174 18.6565 29.0139C18.601 28.5329 18.6565 27.9964 18.4713 27.5709C18.1935 26.9603 17.8045 26.3683 17.3785 25.8502C17.1006 25.4987 16.656 25.2767 16.2856 25.0177C16.193 24.9437 16.1189 24.8327 16.0078 24.8327C15.378 24.7587 14.7298 24.6107 14.1185 24.6847C13.5999 24.7402 13.0627 24.9252 12.5997 25.3322C12.3403 25.5727 11.9329 25.7023 11.581 25.8318C10.9512 26.0723 10.3029 26.2943 9.69163 26.5718C8.89517 26.9418 8.06167 27.1453 7.15407 26.7013C6.5984 26.4238 6.02423 26.2573 5.72787 25.6468C5.63526 25.4617 5.46853 25.2952 5.3574 25.1287C5.17217 24.8327 5.02403 24.5552 5.04255 24.1667C5.04255 23.7967 4.89434 23.4081 4.83877 23.0381C4.76468 22.6681 4.69062 22.2796 4.63506 21.9096C4.63506 21.8356 4.63503 21.7431 4.67208 21.6506C4.83878 20.9845 4.98698 20.3185 5.15368 19.634C5.20925 19.3935 5.20922 19.116 5.30183 18.894C5.46854 18.5239 5.76493 18.2464 5.85754 17.8024C5.93163 17.4694 6.22794 17.1919 6.45021 16.9144C6.89475 16.3778 7.37635 15.8783 7.80237 15.3233C8.17282 14.8423 8.59882 14.4908 9.11744 14.1947C9.22858 14.1392 9.32118 13.9913 9.3397 13.8803C9.37675 13.5657 9.61757 13.5102 9.83984 13.4177C10.0065 13.3437 10.1547 13.2512 10.3029 13.1587C10.5437 13.0107 10.7845 12.8257 11.0252 12.6962C11.1734 12.6222 11.3772 12.6222 11.5254 12.5482C11.7847 12.4372 12.044 12.2706 12.3033 12.1596C12.507 12.0671 12.7664 12.0486 12.896 11.9191C13.4332 11.3826 14.1741 11.5861 14.8038 11.3456C15.3595 11.1421 16.0449 11.2716 16.6746 11.2716C16.8969 11.2716 17.1932 11.4381 17.3414 11.3456C17.7304 11.1236 18.0082 11.2346 18.3231 11.4566C18.3972 11.5121 18.4898 11.5676 18.5639 11.5491C19.1381 11.4381 19.6196 11.7526 20.1198 11.9376C20.4346 12.0486 20.8051 12.1041 21.0274 12.3261C21.5645 12.8257 22.3424 13.0847 22.6759 13.8062C22.9537 14.3983 23.7316 14.7127 23.602 15.5083C23.602 15.5453 23.6761 15.5823 23.6761 15.6378C23.8613 16.2113 24.3429 16.7479 23.9539 17.4324C23.9539 17.4324 23.9539 17.4879 23.9539 17.5064C23.9724 18.0429 23.9909 18.5609 24.0095 19.0974C24.0095 19.2085 23.9354 19.301 23.8798 19.412C23.7501 19.634 23.6205 19.856 23.4723 20.078C23.2871 20.3555 23.0649 20.5961 22.8796 20.8736C22.7685 21.0401 22.6758 21.2251 22.5462 21.3731C22.3795 21.5766 22.2128 21.7801 22.0276 21.9836C21.8794 22.1501 21.7312 22.3166 21.583 22.4831C21.3422 22.7236 21.1941 23.0751 20.7866 23.1491C20.6199 23.1861 20.4531 23.2972 20.2864 23.3527C20.1938 23.3897 20.0827 23.4081 19.9901 23.4452C19.8419 23.4822 19.6752 23.5192 19.527 23.5747C19.2492 23.6857 18.9714 23.8337 18.675 23.8892C18.3046 23.9632 17.9156 23.9817 17.5266 24.0187C17.5266 24.0557 17.5266 24.1112 17.5266 24.1482C17.7304 24.2777 17.9526 24.3702 18.1564 24.5182C18.3416 24.6662 18.5268 24.8327 18.675 25.0177C18.9158 25.3507 19.1196 25.7023 19.3233 26.0538C19.5826 26.4978 20.0642 26.8493 20.0086 27.4413C19.9716 27.9039 20.2865 28.2184 20.4717 28.5884C20.5643 28.7549 20.8792 28.7919 21.0088 28.9399C21.2867 29.3099 21.6942 29.3654 22.1017 29.4394C22.6203 29.5319 23.1019 29.4394 23.5279 29.0879C23.639 28.9954 23.7687 28.9029 23.8798 28.8844C24.4169 28.8289 24.417 28.8289 24.4725 28.3109C24.4725 28.2554 24.5096 28.1814 24.5281 28.1259C24.7689 27.5153 24.5281 26.9233 24.0095 26.4978C23.7316 26.2758 23.3426 26.0168 23.3612 25.5543C23.3612 25.1473 23.3612 24.7217 23.4353 24.3332C23.4908 24.1297 23.7687 23.8152 23.9354 23.8337C24.3243 23.8337 24.7319 23.9447 25.0653 24.1482C25.4357 24.3702 25.7321 24.7032 26.0469 24.9808C26.2507 24.8327 26.4915 24.6847 26.6767 24.4812C26.8619 24.2962 26.9916 24.0372 27.1768 23.8337C27.6584 23.2601 28.2326 23.3341 28.566 24.0187C28.7141 24.3147 28.6956 24.6292 28.7327 24.9252C28.8067 25.4802 28.5104 25.8688 28.1955 26.1648C27.5843 26.7568 27.3805 27.4043 27.6398 28.1999C27.6769 28.3479 27.7139 28.4959 27.7139 28.6254C27.6954 29.1064 27.9733 29.3099 28.3622 29.5134C28.8068 29.7354 29.2513 29.5504 29.6773 29.6244C29.9922 29.6799 30.27 29.6244 30.5479 29.4394C30.8257 29.2729 31.1591 29.1434 31.4554 28.9954C31.8444 28.7919 32.2149 28.6069 32.5853 28.3849C32.6409 28.3479 32.6965 28.2183 32.6779 28.1628C32.4186 27.4783 32.8076 26.8308 32.8446 26.1833C32.8446 26.0723 32.8076 25.9428 32.8446 25.8318C32.9743 25.4063 33.141 24.9993 33.2521 24.5737C33.4373 23.9447 33.7338 23.2787 34.4006 22.9457L34.5117 22.9271ZM21.546 18.0799C21.5275 17.5249 21.0644 16.8589 20.6199 16.7109C20.0272 16.5259 19.49 16.0818 18.8047 16.3408C18.7306 16.3593 18.6379 16.3223 18.5453 16.3223C18.1934 16.3223 17.8415 16.3224 17.4896 16.3594C17.2488 16.3964 16.9895 16.4519 16.7857 16.5814C16.1745 16.9884 15.5818 17.4509 14.9705 17.8579C14.6186 18.0984 14.3964 18.3944 14.3593 18.8199C14.3408 19.0975 14.6001 19.597 14.8779 19.597C15.1373 19.597 15.5632 19.5045 15.6558 19.3194C15.9522 18.6904 16.619 18.5425 17.0821 18.1539C17.2488 18.0244 17.6007 18.0984 17.7674 17.9504C18.1934 17.6174 18.6936 17.7099 19.101 17.7839C19.6197 17.8764 20.1753 18.0059 20.6384 18.3944C20.768 18.5054 21.1385 18.3944 21.3793 18.3204C21.4719 18.3019 21.5089 18.0984 21.5275 18.0614L21.546 18.0799ZM30.6961 17.4879C30.6961 17.4879 30.6776 17.5989 30.6961 17.6359C30.8257 17.8394 30.9183 18.0614 31.1035 18.2094C31.2887 18.376 31.4925 18.2649 31.6962 18.1169C31.9185 17.9504 32.1964 17.8209 32.4742 17.7284C32.8076 17.6174 33.1595 17.5064 33.5115 17.4879C33.8449 17.4879 34.2153 17.5064 34.5117 17.6544C34.9562 17.8949 35.3267 18.2279 35.7156 18.5424C35.8453 18.6349 35.9379 18.7644 36.0676 18.8754C36.2528 19.0235 36.4195 19.1899 36.6232 19.2639C36.9751 19.375 37.5308 18.8385 37.4197 18.5055C37.327 18.228 37.2159 17.9874 37.1048 17.7099C36.9196 17.2104 36.3084 17.2474 36.012 16.8774C36.012 16.8774 35.9379 16.9144 35.9193 16.9144C35.8453 16.8959 35.7341 16.8774 35.6971 16.8219C35.3081 16.2114 34.7154 16.1003 34.0671 16.0448C33.7152 16.0263 33.4003 16.1003 33.0669 16.1188C32.715 16.1373 32.3631 16.1929 32.0482 16.3039C31.7889 16.3964 31.5296 16.5444 31.2703 16.6369C30.8998 16.7849 30.7146 17.0623 30.6961 17.4694V17.4879Z" fill="#75391C"/>
</svg>
