<svg width="512" height="512" viewBox="0 0 512 512" fill="none" xmlns="http://www.w3.org/2000/svg">
<path d="M175.607 245.968L151.833 268.911C132.757 287.32 102.371 286.779 83.9614 267.704L61.0186 243.93M444.58 272.73L431.968 241.156C423.772 220.64 400.5 210.652 379.983 218.847L346.551 232.201C330.139 238.756 311.52 230.766 304.964 214.354L286.046 166.992C280.105 152.119 263.232 144.878 248.358 150.819C233.484 156.76 226.243 173.633 232.184 188.507L272.203 288.696C274.935 295.536 267.462 302.729 260.456 300.456C238.826 293.437 206.53 288.507 202.78 319.779C198.983 351.449 254.879 369.806 292.559 378.525C314.114 383.512 336.479 380.518 357.025 372.312L411.116 350.706C441.888 338.414 456.872 303.503 444.58 272.73Z" stroke="#FFFFFF" stroke-opacity="0.8" stroke-width="7" stroke-linecap="round" stroke-linejoin="round"/>
<path d="M173.248 118.77C179.767 114.614 188.422 116.529 192.579 123.049C196.735 129.568 194.82 138.223 188.3 142.38L173.248 118.77ZM100.81 283.556C95.2347 252.005 99.1411 219.508 112.035 190.176L137.668 201.444C127.002 225.706 123.771 252.586 128.383 278.684L100.81 283.556ZM112.035 190.176C124.929 160.845 146.231 135.995 173.248 118.77L188.3 142.38C165.953 156.628 148.333 177.182 137.668 201.444L112.035 190.176Z" fill="#FFFFFF" fill-opacity="0.8"/>
</svg>
