<svg width="373" height="373" viewBox="0 0 373 373" fill="none" xmlns="http://www.w3.org/2000/svg">
<path d="M253.135 55.972L251.27 53.9973C241.485 44.2115 232.028 42.6756 225.841 43.1145C218.073 43.663 210.35 47.5466 203.548 54.3483C200.455 57.442 198.502 61.1062 197.58 65.0776C195.693 63.4759 193.653 62.1375 191.481 61.1062C180.313 55.7087 166.819 58.0564 157.933 66.9426C153.347 71.5283 150.473 77.3427 149.573 83.574C145.558 81.5115 141.082 80.4145 136.43 80.4145H136.145C128.356 80.5022 121.028 83.5959 115.476 89.1251C111.33 93.272 108.543 98.4501 107.38 104.045L61.0185 57.6834C55.5332 52.1762 48.161 49.2141 40.3718 49.2799C32.5827 49.3457 25.2324 52.4395 19.6813 57.9906C8.20608 69.4658 8.07443 88.028 19.3741 99.3277L124.582 204.536C100.929 193.675 84.9124 189.155 75.1486 190.406C62.7957 191.985 52.7905 198.963 47.7221 209.582C43.3997 218.622 43.5533 228.868 48.139 236.306C49.3458 238.281 51.891 242.406 56.3011 244.425C103.848 266.256 122.761 278.434 142.793 291.335C149.836 295.877 157.121 300.572 165.875 305.838C177.329 312.75 186.698 318.366 187.005 318.52C201.266 326.616 214.87 329.864 227.574 329.864C266.585 329.864 297.062 299.19 312.201 283.941L327.428 268.714C346.232 249.91 358.256 227.464 361.283 205.501C364.575 181.607 357.422 160.083 340.571 143.232L253.157 55.9281L253.135 55.972ZM318.103 259.432L302.832 274.704C281.878 295.811 242.845 335.086 193.565 307.155C193.082 306.869 184.811 301.911 172.655 294.604C164.076 289.448 156.879 284.797 149.924 280.321C129.497 267.178 110.211 254.759 61.8084 232.533C61.2818 232.291 60.448 231.26 59.351 229.483C57.113 225.862 57.2227 220.311 59.5923 215.331C62.708 208.836 68.9831 204.536 76.8161 203.526C84.0787 202.561 102.838 206.84 150.911 232.511C155.76 235.1 159.951 237.338 163.374 232.73C165.327 230.119 165.042 226.433 162.716 224.129L28.6772 90.0686C22.4898 83.8812 22.6214 73.7005 28.9844 67.3375C32.0781 64.2438 36.1591 62.5104 40.4815 62.4885H40.6351C44.8478 62.4885 48.7534 64.1122 51.7154 67.0523L123.397 138.734L146.216 161.553C147.511 162.847 149.178 163.484 150.868 163.484C152.557 163.484 154.247 162.847 155.519 161.553C158.086 158.986 158.086 154.817 155.519 152.25L124.472 121.203C121.488 118.219 119.887 114.248 119.931 109.969C119.974 105.647 121.708 101.566 124.78 98.494C131.142 92.153 141.323 91.9994 147.489 98.1868L154.466 105.164C154.817 105.515 155.212 105.822 155.629 106.064C156.265 106.832 156.923 107.6 157.647 108.324L178.557 129.234C179.852 130.528 181.519 131.164 183.209 131.164C184.898 131.164 186.588 130.528 187.86 129.234C190.428 126.666 190.428 122.498 187.86 119.931L166.95 99.0206C163.966 96.0366 162.365 92.0652 162.409 87.7647C162.431 83.4862 164.164 79.4052 167.258 76.3114C172.194 71.3747 179.632 70.0582 185.82 73.0422C187.356 73.7663 188.716 74.7317 189.989 76.0043L209.648 95.6636L210.526 96.5412L210.899 96.9142C212.193 98.2087 213.861 98.845 215.55 98.845C217.24 98.845 218.929 98.2087 220.202 96.9142C222.769 94.3471 222.769 90.1783 220.202 87.6112L219.829 87.2382L218.951 86.3605L217.196 84.6052C209.78 77.1891 208.002 68.6101 212.873 63.7172C222.637 53.9534 232.445 53.8217 241.836 63.2126L243.701 65.1873L331.246 152.623C358.826 180.203 353.429 224.151 318.103 259.476V259.432Z" fill="#75391C"/>
</svg>
