<svg width="316" height="424" viewBox="0 0 316 424" fill="none" xmlns="http://www.w3.org/2000/svg">
<path d="M118.405 27.76H251.925C254.047 27.76 256.082 26.9171 257.582 25.4169C259.082 23.9166 259.925 21.8817 259.925 19.76C259.925 17.6383 259.082 15.6034 257.582 14.1031C256.082 12.6029 254.047 11.76 251.925 11.76H118.405V0L83.9253 19.76L118.405 39.76V27.76ZM166.405 64L131.925 83.76L166.405 103.76V91.76H299.925C302.047 91.76 304.082 90.9171 305.582 89.4169C307.082 87.9166 307.925 85.8817 307.925 83.76C307.925 81.6383 307.082 79.6034 305.582 78.1031C304.082 76.6029 302.047 75.76 299.925 75.76H166.405V64ZM310.805 315.76C312.992 311.431 314.131 306.65 314.131 301.8C314.131 296.95 312.992 292.169 310.805 287.84L266.245 210.64C262.329 203.709 256.068 198.403 248.59 195.675C241.111 192.948 232.904 192.978 225.445 195.76L153.445 220.24L105.445 144C109.929 135.661 112.202 126.312 112.048 116.845C111.894 107.379 109.318 98.109 104.565 89.92C97.1377 77.0629 84.908 67.682 70.5653 63.84C63.4557 61.8929 56.0289 61.3853 48.7205 62.3469C41.412 63.3085 34.3693 65.7201 28.0053 69.44C17.4405 75.538 9.15583 84.9189 4.41067 96.1566C-0.334486 107.394 -1.28054 119.874 1.71634 131.698C4.71322 143.523 11.4891 154.046 21.0139 161.667C30.5387 169.288 42.2914 173.59 54.4853 173.92L112.885 283.76L75.2053 292.72C48.4053 299.04 34.4853 322.72 34.7253 348.72C34.8386 351.837 35.6512 354.888 37.1033 357.649C38.5553 360.409 40.6095 362.807 43.1137 364.666C45.618 366.525 48.5083 367.797 51.5707 368.388C54.6331 368.979 57.7892 368.874 60.8053 368.08C84.3121 361.103 109.501 362.402 132.165 371.76C148.501 380.204 161.87 393.434 170.485 409.68C172.91 413.881 176.414 417.357 180.633 419.748C184.853 422.139 189.636 423.359 194.485 423.28C199.088 423.249 203.605 422.037 207.605 419.76L300.485 366.16C303.895 364.172 306.871 361.519 309.234 358.358C311.598 355.197 313.302 351.593 314.245 347.76C315.161 344.314 315.378 340.72 314.884 337.189C314.389 333.658 313.193 330.262 311.365 327.2C310.359 325.479 309.783 323.54 309.685 321.549C309.588 319.557 309.972 317.571 310.805 315.76ZM20.8853 137.92C17.6121 132.264 15.7743 125.893 15.5327 119.363C15.2911 112.833 16.653 106.343 19.4993 100.461C22.3456 94.5785 26.5897 89.4833 31.8604 85.6205C37.131 81.7578 43.2678 79.2451 49.734 78.3023C56.2002 77.3594 62.7989 78.0151 68.9531 80.212C75.1074 82.4089 80.6297 86.0801 85.0371 90.9045C89.4445 95.7289 92.6029 101.56 94.236 107.887C95.8692 114.214 95.9273 120.845 94.4053 127.2L81.1253 106.32C77.1801 100.44 71.1428 96.2851 64.2421 94.6994C57.3414 93.1138 50.0958 94.2171 43.9798 97.7848C37.8638 101.352 33.3369 107.116 31.3204 113.904C29.3039 120.691 29.9494 127.992 33.1253 134.32L44.8053 156.32C34.7354 153.545 26.1504 146.941 20.8853 137.92ZM298.805 344.16C297.808 347.541 295.544 350.407 292.485 352.16L199.605 405.76C196.028 406.951 192.127 406.708 188.725 405.082C185.323 403.455 182.685 400.573 181.365 397.04C155.365 353.12 104.005 339.92 56.4853 352.88C52.0053 354.08 50.6453 348.88 50.4853 345.6C48.4053 304.64 98.4853 303.68 126.485 297.04C127.671 296.755 128.776 296.202 129.715 295.425C130.655 294.647 131.404 293.665 131.906 292.553C132.408 291.442 132.649 290.23 132.61 289.011C132.572 287.792 132.256 286.598 131.685 285.52L47.0453 126.8C45.6509 124.087 45.3499 120.942 46.2044 118.013C47.0589 115.084 49.0038 112.595 51.6387 111.057C54.2735 109.519 57.3977 109.05 60.368 109.746C63.3383 110.443 65.9285 112.251 67.6053 114.8L142.965 234.08C143.925 235.583 145.36 236.722 147.041 237.316C148.723 237.91 150.554 237.926 152.245 237.36L230.805 210.8C234.724 209.385 239.019 209.414 242.919 210.88C246.819 212.346 250.069 215.154 252.085 218.8L296.645 296C297.657 297.982 298.184 300.175 298.184 302.4C298.184 304.625 297.657 306.818 296.645 308.8C294.508 313.088 293.497 317.849 293.707 322.635C293.917 327.422 295.341 332.076 297.845 336.16C299.154 338.613 299.497 341.467 298.805 344.16Z" fill="#733920" fill-opacity="0.8"/>
</svg>
